<?xml version="1.0" encoding="UTF-8" standalone="no"?>
<!-- Created with Inkscape (http://www.inkscape.org/) -->

<svg
   xmlns:dc="http://purl.org/dc/elements/1.1/"
   xmlns:cc="http://creativecommons.org/ns#"
   xmlns:rdf="http://www.w3.org/1999/02/22-rdf-syntax-ns#"
   xmlns:svg="http://www.w3.org/2000/svg"
   xmlns="http://www.w3.org/2000/svg"
   xmlns:sodipodi="http://sodipodi.sourceforge.net/DTD/sodipodi-0.dtd"
   xmlns:inkscape="http://www.inkscape.org/namespaces/inkscape"
   width="603.88159"
   height="71.308197"
   viewBox="0 0 159.777 18.866961"
   version="1.1"
   id="svg8"
   sodipodi:docname="econlogo.svg"
   inkscape:version="0.92.2 (5c3e80d, 2017-08-06)">
  <defs
     id="defs2" />
  <sodipodi:namedview
     id="base"
     pagecolor="#ffffff"
     bordercolor="#666666"
     borderopacity="1.0"
     inkscape:pageopacity="0.0"
     inkscape:pageshadow="2"
     inkscape:zoom="0.35"
     inkscape:cx="673.97487"
     inkscape:cy="-4.3459126"
     inkscape:document-units="px"
     inkscape:current-layer="layer1"
     showgrid="false"
     units="px"
     width="1340px"
     inkscape:window-width="1366"
     inkscape:window-height="715"
     inkscape:window-x="-8"
     inkscape:window-y="-8"
     inkscape:window-maximized="1" />
  <metadata
     id="metadata5">
    <rdf:RDF>
      <cc:Work
         rdf:about="">
        <dc:format>image/svg+xml</dc:format>
        <dc:type
           rdf:resource="http://purl.org/dc/dcmitype/StillImage" />
        <dc:title></dc:title>
      </cc:Work>
    </rdf:RDF>
  </metadata>
  <g
     inkscape:label="Layer 1"
     inkscape:groupmode="layer"
     id="layer1"
     transform="translate(10.113949,-280.00698)">
    <path
       inkscape:connector-curvature="0"
       style="fill:none;stroke-width:0.26458332"
       d="m 104.86925,288.12651 c 0,0.25321 -0.0212,0.52758 -0.0635,0.80196 h 3.6933 v -1.0975 h -3.6298 z"
       id="path2" />
    <path
       inkscape:connector-curvature="0"
       style="fill:none;stroke-width:0.26458332"
       d="m 86.766018,296.19789 c -0.109527,-0.18097 -0.243937,-0.2712 -0.402957,-0.2712 -0.15081,0 -0.281507,0.095 -0.391307,0.28575 -0.1106,0.19077 -0.16643,0.42387 -0.16643,0.69983 0,0.2786 0.0521,0.51461 0.15664,0.70855 0.11721,0.21643 0.261397,0.32465 0.430997,0.32465 0.0722,0 0.14208,-0.0238 0.21087,-0.0717 0.0677,-0.0481 0.126737,-0.11536 0.176217,-0.20214 0.0521,-0.0894 0.0939,-0.20214 0.12673,-0.33734 0.032,-0.13547 0.0481,-0.2667 0.0481,-0.39317 0,-0.13124 -0.0169,-0.26406 -0.0511,-0.39741 -0.0344,-0.13441 -0.0804,-0.24976 -0.13785,-0.34581 z"
       id="path4" />
    <path
       inkscape:connector-curvature="0"
       style="fill:none;stroke-width:0.26458332"
       d="m 13.354591,280.40438 c -2.87999,0.38471 -5.1474699,4.10978 -5.1474699,8.63627 0,0.003 2.6e-4,0.005 2.6e-4,0.007 h 3.9658399 c 0,-0.003 0,-0.005 0,-0.007 0,-4.06506 0.49768,-7.502 1.18137,-8.63627 z"
       id="path6" />
    <path
       inkscape:connector-curvature="0"
       style="fill:none;stroke-width:0.26458332"
       d="m 80.942581,296.19789 c -0.109537,-0.18097 -0.244477,-0.2712 -0.402967,-0.2712 -0.15134,0 -0.281507,0.095 -0.391307,0.28575 -0.11113,0.19077 -0.16643,0.42387 -0.16643,0.69983 0,0.2786 0.0521,0.51461 0.15664,0.70855 0.11721,0.21643 0.261397,0.32465 0.430997,0.32465 0.0717,0 0.14208,-0.0238 0.21035,-0.0717 0.0683,-0.0479 0.126997,-0.11536 0.176737,-0.20214 0.0516,-0.0894 0.0939,-0.20214 0.1262,-0.33734 0.0323,-0.1352 0.0481,-0.2667 0.0481,-0.39317 0,-0.13124 -0.0169,-0.26406 -0.0511,-0.39741 -0.0344,-0.13441 -0.0799,-0.24976 -0.13731,-0.34581 z"
       id="path8" />
    <path
       inkscape:connector-curvature="0"
       style="fill:none;stroke-width:0.26458332"
       d="m 14.705821,282.90099 c -0.37254,-2.13016 -0.78979,-2.48258 -0.85911,-2.5273 -0.0693,0.0444 -0.48683,0.39688 -0.85936,2.52704 -0.29131,1.66343 -0.45138,3.8436 -0.45138,6.13992 0,0.003 0,0.005 0,0.007 h 2.6207 c 0,-0.003 0,-0.005 0,-0.007 0,-2.29606 -0.16034,-4.47649 -0.45085,-6.13966 z"
       id="path10" />
    <path
       inkscape:connector-curvature="0"
       style="fill:none;stroke-width:0.26458332"
       d="m 11.591931,280.66844 c -3.6917299,0.9951 -6.4169399,4.37065 -6.4169399,8.37221 0,0.003 2.7e-4,0.005 2.7e-4,0.007 h 2.66991 c 0,-0.003 -2.7e-4,-0.005 -2.7e-4,-0.007 0,-3.78857 1.54967,-7.03025 3.7470299,-8.37221 z"
       id="path12" />
    <path
       inkscape:connector-curvature="0"
       style="fill:none;stroke-width:0.26458332"
       d="m 14.338041,280.40438 c 0.68395,1.13427 1.1811,4.57095 1.1811,8.63627 0,0.003 0,0.005 0,0.007 h 3.9669 c 0,-0.003 2.7e-4,-0.005 2.7e-4,-0.007 0,-4.52649 -2.26775,-8.25183 -5.14827,-8.63627 z"
       id="path14" />
    <path
       inkscape:connector-curvature="0"
       style="fill:none;stroke-width:0.26458332"
       d="m 16.101231,297.41312 c 3.57743,-0.9644 6.24602,-4.16401 6.40794,-8.00258 h -2.66647 c -0.0976,3.62876 -1.61634,6.70454 -3.74147,8.00258 z"
       id="path16" />
    <path
       inkscape:connector-curvature="0"
       style="fill:none;stroke-width:0.26458332"
       d="m -3.5266189,289.41054 h -6.10447 v 8.31691 h 12.23672 c -3.46366002,-1.22952 -5.97959,-4.47358 -6.13225,-8.31691 z"
       id="path18" />
    <path
       inkscape:connector-curvature="0"
       style="fill:none;stroke-width:0.26458332"
       d="m 13.354591,297.67718 c -0.66305,-1.09961 -1.15041,-4.36404 -1.17925,-8.26664 H 8.2132011 c 0.12013,4.35795 2.3405099,7.89252 5.1413899,8.26664 z"
       id="path20" />
    <path
       inkscape:connector-curvature="0"
       style="fill:none;stroke-width:0.26458332"
       d="m 4.8217811,289.41054 h -7.98619 c 0.17092,4.13252 3.18716998,7.54221 7.13767,8.31691 h 7.3943099 c -3.6695099,-1.04537 -6.3854599,-4.35107 -6.5457899,-8.31691 z"
       id="path22" />
    <path
       inkscape:connector-curvature="0"
       style="fill:none;stroke-width:0.26458332"
       d="M 11.591931,297.41312 C 9.4668011,296.11508 7.9483611,293.0393 7.8509911,289.41054 h -2.66647 c 0.16192,3.83857 2.82998,7.03844 6.4074099,8.00258 z"
       id="path24" />
    <path
       inkscape:connector-curvature="0"
       style="fill:none;stroke-width:0.26458332"
       d="m -3.5358789,289.04065 c 0,-4.05024 2.41644,-7.2091 6.04414,-8.30924 h -12.13935 v 8.31665 h 6.09521 c 0,-0.002 0,-0.005 0,-0.007 z"
       id="path26" />
    <path
       inkscape:connector-curvature="0"
       style="fill:none;stroke-width:0.26458332"
       d="m 68.472573,296.19789 c -0.10954,-0.18097 -0.24395,-0.2712 -0.402957,-0.2712 -0.15108,0 -0.28152,0.095 -0.39132,0.28575 -0.110857,0.19077 -0.166417,0.42387 -0.166417,0.69983 0,0.2786 0.0521,0.51461 0.15663,0.70855 0.117207,0.21643 0.261137,0.32465 0.431007,0.32465 0.0722,0 0.142337,-0.0238 0.210597,-0.0717 0.0683,-0.0479 0.12674,-0.11536 0.17648,-0.20214 0.0521,-0.0894 0.0939,-0.20214 0.12647,-0.33734 0.032,-0.13547 0.0482,-0.2667 0.0482,-0.39317 0,-0.13124 -0.0167,-0.26406 -0.0511,-0.39741 -0.0341,-0.13441 -0.0802,-0.24976 -0.13758,-0.34581 z"
       id="path28" />
    <path
       inkscape:connector-curvature="0"
       style="fill:none;stroke-width:0.26458332"
       d="m 19.480221,289.41054 h -3.96319 c -0.0288,3.9026 -0.5162,7.16703 -1.17925,8.26664 2.80167,-0.37412 5.02259,-3.90869 5.14244,-8.26664 z"
       id="path30" />
    <path
       inkscape:connector-curvature="0"
       style="fill:none;stroke-width:0.26458332"
       d="m 13.846451,297.70787 c 0.0693,-0.045 0.48657,-0.39688 0.8591,-2.52757 0.27517,-1.57294 0.43127,-3.6105 0.44768,-5.76976 h -2.61462 c 0.0164,2.159 0.17278,4.19655 0.44821,5.76976 0.37306,2.13069 0.79031,2.48259 0.85963,2.52757 z"
       id="path32" />
    <path
       inkscape:connector-curvature="0"
       style="fill:none;stroke-width:0.26458332"
       d="m 47.840381,297.10515 c -0.0373,0.032 -0.0714,0.0709 -0.10186,0.11589 -0.0627,0.0931 -0.0939,0.20108 -0.0939,0.32464 0,0.10636 0.0243,0.19315 0.0728,0.26247 0.0484,0.0693 0.11033,0.10345 0.18494,0.10345 0.0651,0 0.12673,-0.0243 0.18494,-0.0733 0.0579,-0.0492 0.10134,-0.1143 0.13071,-0.19632 0.0413,-0.10689 0.0619,-0.26247 0.0619,-0.46673 v -0.40163 c -0.0717,0.0717 -0.15108,0.13546 -0.23786,0.1897 -0.0971,0.063 -0.16431,0.1098 -0.20162,0.14182 z"
       id="path34" />
    <path
       inkscape:connector-curvature="0"
       style="fill:none;stroke-width:0.26458332"
       d="m 138.4811,296.18122 c -0.0357,-0.0786 -0.0836,-0.14049 -0.14367,-0.18653 -0.0601,-0.0455 -0.12356,-0.0683 -0.19182,-0.0683 -0.1143,0 -0.21458,0.059 -0.3003,0.1778 -0.0857,0.1188 -0.13653,0.26829 -0.1524,0.44741 h 0.86201 c -0.009,-0.16007 -0.0341,-0.28363 -0.0738,-0.37042 z"
       id="path36" />
    <path
       inkscape:connector-curvature="0"
       style="fill:none;stroke-width:0.26458332"
       d="m 45.734031,296.18863 c -0.0997,-0.16378 -0.22172,-0.24553 -0.36539,-0.24553 -0.0709,0 -0.13758,0.0212 -0.20002,0.0624 -0.0624,0.0418 -0.11272,0.0987 -0.14976,0.17092 -0.0413,0.077 -0.0699,0.17251 -0.0857,0.28734 -0.0159,0.11483 -0.0238,0.27808 -0.0238,0.49001 0,0.22119 0.008,0.38814 0.0238,0.50032 0.0161,0.11272 0.0445,0.2032 0.0857,0.27226 0.0373,0.0608 0.0862,0.11007 0.14711,0.14684 0.0606,0.0368 0.12197,0.0553 0.18468,0.0553 0.14102,0 0.26405,-0.0807 0.36936,-0.24077 0.064,-0.096 0.11324,-0.21034 0.1479,-0.34158 0.0347,-0.13176 0.0519,-0.26881 0.0519,-0.41142 0,-0.13785 -0.0164,-0.27332 -0.0489,-0.40561 -0.0325,-0.13229 -0.0783,-0.24606 -0.13679,-0.34052 z"
       id="path38" />
    <rect
       style="fill:none;stroke-width:0.26458332"
       x="42.803288"
       y="284.85495"
       width="2.1634979"
       height="2.691077"
       id="rect40" />
    <path
       inkscape:connector-curvature="0"
       style="fill:none;stroke-width:0.26458332"
       d="m 42.890031,296.18122 c -0.036,-0.0786 -0.0839,-0.14049 -0.14394,-0.18653 -0.0598,-0.0455 -0.12356,-0.0683 -0.19156,-0.0683 -0.11456,0 -0.21484,0.059 -0.30056,0.1778 -0.0857,0.1188 -0.13679,0.26829 -0.15267,0.44741 h 0.86228 c -0.009,-0.16007 -0.0339,-0.28363 -0.0736,-0.37042 z"
       id="path42" />
    <path
       inkscape:connector-curvature="0"
       style="fill:none;stroke-width:0.26458332"
       d="m 39.821121,295.2237 c -0.14843,-0.21352 -0.32543,-0.35455 -0.53128,-0.42334 -0.11218,-0.0373 -0.25532,-0.0558 -0.42889,-0.0558 h -0.24289 v 2.39209 c 0,0.15717 0.007,0.27649 0.0222,0.35851 0.0146,0.0818 0.0418,0.15135 0.0823,0.20929 0.0855,0.12515 0.22463,0.18759 0.41699,0.18759 0.1643,0 0.30506,-0.0325 0.42227,-0.0976 0.11668,-0.0646 0.22146,-0.17013 0.3138,-0.31618 0.091,-0.14102 0.16007,-0.30295 0.20743,-0.48472 0.0476,-0.18229 0.0714,-0.3757 0.0714,-0.58129 0,-0.22727 -0.0286,-0.4445 -0.0863,-0.64955 -0.0577,-0.20505 -0.1397,-0.38497 -0.24712,-0.53895 z"
       id="path44" />
    <path
       inkscape:connector-curvature="0"
       style="fill:none;stroke-width:0.26458332"
       d="m 59.103691,296.18122 c -0.0362,-0.0786 -0.0839,-0.14049 -0.14393,-0.18653 -0.0598,-0.0455 -0.12383,-0.0683 -0.19156,-0.0683 -0.11483,0 -0.21484,0.059 -0.30057,0.1778 -0.086,0.1188 -0.13679,0.26829 -0.15266,0.44741 h 0.86228 c -0.009,-0.16007 -0.0336,-0.28363 -0.0736,-0.37042 z"
       id="path46" />
    <path
       inkscape:connector-curvature="0"
       style="fill:none;stroke-width:0.26458332"
       d="m 16.101231,280.66844 c 2.19736,1.3417 3.74756,4.58364 3.74756,8.37247 0,0.003 -2.7e-4,0.005 -2.7e-4,0.007 h 2.66991 c 0,-0.003 2.7e-4,-0.005 2.7e-4,-0.007 0,-4.00182 -2.72574,-7.37737 -6.41747,-8.37247 z"
       id="path48" />
    <path
       inkscape:connector-curvature="0"
       style="fill:none;stroke-width:0.26458332"
       d="m 108.80543,284.26413 c -0.20055,0.0526 -0.4011,0.095 -0.58023,0.13731 v 1.3507 c 0.30586,-0.0738 0.64347,-0.15848 0.9705,-0.24262 -0.16854,-0.35904 -0.29581,-0.77047 -0.39027,-1.24539 z"
       id="path50" />
    <path
       inkscape:connector-curvature="0"
       style="fill:#b5cee3;stroke-width:0.26458332"
       d="m -3.1641389,289.41054 h -0.36222 c 0.1524,3.84307 2.66858998,7.08739 6.13225,8.31691 h 1.36763 c -3.95076002,-0.7747 -6.96674,-4.18439 -7.13766,-8.31691 z"
       id="path52" />
    <path
       inkscape:connector-curvature="0"
       style="fill:#b5cee3;stroke-width:0.26458332"
       d="m -3.5358789,289.04065 c 0,0.003 0,0.005 0,0.007 h 0.36248 c 0,-0.003 -2.7e-4,-0.005 -2.7e-4,-0.007 0,-4.48707 3.09773998,-7.83378 7.50835,-8.30924 h -1.82642 c -3.6277,1.1004 -6.04414,4.25926 -6.04414,8.30924 z"
       id="path54" />
    <path
       inkscape:connector-curvature="0"
       style="fill:#b5cee3;stroke-width:0.26458332"
       d="m 5.6787611,298.25609 v -0.0455 h -0.91599 c 0.30136,0.0299 0.60696,0.0455 0.91599,0.0455 z"
       id="path56" />
    <path
       inkscape:connector-curvature="0"
       style="fill:#b5cee3;stroke-width:0.26458332"
       d="m 5.1749911,289.04065 c 0,-4.00182 2.72521,-7.37711 6.4169399,-8.37221 -2.1973599,1.3417 -3.7470299,4.58338 -3.7470299,8.37221 0,0.003 2.7e-4,0.005 2.7e-4,0.007 h 0.36221 c 0,-0.003 -2.6e-4,-0.005 -2.6e-4,-0.007 0,-4.52649 2.2674799,-8.25183 5.1474699,-8.63627 -0.68369,1.13427 -1.18137,4.57095 -1.18137,8.63627 0,0.003 0,0.005 0,0.007 h 0.36248 c 0,-0.003 0,-0.005 0,-0.007 0,-2.29606 0.16008,-4.47649 0.45138,-6.13992 0.37254,-2.13016 0.79005,-2.48259 0.85937,-2.52704 0.0693,0.0444 0.48657,0.39688 0.8591,2.5273 0.29078,1.66317 0.45085,3.84334 0.45085,6.13966 0,0.003 0,0.005 0,0.007 h 0.36248 c 0,-0.003 0,-0.005 0,-0.007 0,-4.06532 -0.49715,-7.502 -1.1811,-8.63627 2.88052,0.38444 5.14826,4.10978 5.14826,8.63627 0,0.003 -2.6e-4,0.005 -2.6e-4,0.007 h 0.36248 c 0,-0.003 2.6e-4,-0.005 2.6e-4,-0.007 0,-3.78883 -1.55019,-7.03051 -3.74756,-8.37248 3.69173,0.9951 6.41747,4.37066 6.41747,8.37248 0,0.003 -2.6e-4,0.005 -2.6e-4,0.007 h 0.36221 c 0,-0.003 5.3e-4,-0.005 5.3e-4,-0.007 0,-4.98951 -4.04521,-9.03367 -9.03446,-9.03367 -4.9887199,0 -9.0341999,4.04416 -9.0341999,9.03367 0,0.003 2.7e-4,0.005 2.7e-4,0.007 h 0.36247 c 2.7e-4,-0.002 0,-0.005 0,-0.007 z"
       id="path58" />
    <path
       inkscape:connector-curvature="0"
       style="fill:#b5cee3;stroke-width:0.26458332"
       d="m 16.101231,297.41312 c 2.12513,-1.29804 3.64384,-4.37382 3.74147,-8.00258 h -0.36221 c -0.11986,4.35795 -2.34104,7.89252 -5.14245,8.26664 0.66305,-1.09961 1.15041,-4.36404 1.17925,-8.26664 h -0.3638 c -0.0167,2.159 -0.17251,4.19655 -0.44767,5.76976 -0.37254,2.13069 -0.78979,2.48259 -0.85911,2.52757 -0.0696,-0.045 -0.48683,-0.39688 -0.85936,-2.52757 -0.27543,-1.57294 -0.43207,-3.6105 -0.44821,-5.76976 h -0.36354 c 0.0288,3.9026 0.51621,7.16703 1.17925,8.26664 -2.80088,-0.37412 -5.0215199,-3.90869 -5.1413799,-8.26664 h -0.36222 c 0.0971,3.62876 1.61555,6.70454 3.7409499,8.00258 -3.5774299,-0.9644 -6.2454899,-4.16401 -6.4074199,-8.00258 h -0.36274 c 0.16007,3.96557 2.87629,7.27128 6.5457899,8.31691 h 4.95776 c 3.67004,-1.04537 6.38625,-4.35107 6.54633,-8.31691 h -0.36275 c -0.16192,3.83857 -2.83051,7.03844 -6.40794,8.00258 z"
       id="path60" />
    <path
       inkscape:connector-curvature="0"
       d="m 33.207601,297.72745 h -16.88227 -4.95776 -7.3943099 -1.36763 -12.23672 v -8.31691 -0.36248 -8.31665 h 12.13935 1.82642 1.09246 c 0.13335,0 0.24157,-0.10822 0.24157,-0.24157 0,-0.13335 -0.10822,-0.24156 -0.24157,-0.24156 h -15.29953 c -0.1333501,0 -0.2415601,0.10821 -0.2415601,0.24156 v 17.47891 c 0,0.13388 0.10821,0.24183 0.2415601,0.24183 h 14.63516 0.91599 27.5288399 c 0.13335,0 0.24156,-0.10795 0.24156,-0.24183 0,-0.13335 -0.10821,-0.2413 -0.24156,-0.2413 z"
       id="path62"
       style="stroke-width:0.26458332" />
    <path
       inkscape:connector-curvature="0"
       style="fill:#e60012;stroke-width:0.26458332"
       d="m -9.6310889,289.04832 v 0.36248 h 6.10447 0.36221 7.98619 0.36274 2.66647 0.36221 3.9621399 0.36354 2.61461 0.3638 3.9632 0.36221 2.66647 0.36275 1.7399 v 0 c 0.0217,0 0.0423,-0.005 0.0624,-0.0127 0.006,-0.002 0.0109,-0.005 0.0161,-0.007 0.0151,-0.007 0.0286,-0.0164 0.0413,-0.0275 0.003,-0.003 0.007,-0.005 0.0103,-0.009 0.013,-0.0138 0.0249,-0.0291 0.0333,-0.0476 l 0.93106,-1.96744 2.06799,3.98357 c 0.0114,0.0527 0.0437,0.10028 0.0966,0.12568 0.0249,0.0119 0.0511,0.0169 0.0773,0.0169 0.068,0 0.13308,-0.0384 0.16377,-0.10345 l 3.26099,-6.8924 c 0.0429,-0.0905 0.005,-0.19844 -0.086,-0.2413 -0.0907,-0.0431 -0.19843,-0.004 -0.2413,0.0863 l -3.10012,6.55187 -2.08624,-4.01849 c -0.003,-0.007 -0.009,-0.0106 -0.0132,-0.0167 -0.007,-0.0103 -0.0145,-0.0201 -0.0233,-0.0288 -0.009,-0.009 -0.019,-0.0156 -0.0299,-0.0222 -0.006,-0.004 -0.0103,-0.01 -0.0169,-0.0127 -0.004,-0.002 -0.008,-10e-4 -0.0114,-0.003 -0.0119,-0.005 -0.0241,-0.007 -0.0368,-0.009 -0.0109,-0.002 -0.0217,-0.004 -0.0325,-0.004 -0.0114,0 -0.022,0.003 -0.0333,0.005 -0.0122,0.003 -0.0241,0.005 -0.0354,0.0103 -0.004,0.002 -0.008,0.001 -0.0114,0.003 -0.007,0.003 -0.0109,0.009 -0.0167,0.0132 -0.0103,0.007 -0.0201,0.014 -0.0288,0.0233 -0.009,0.009 -0.0156,0.019 -0.0222,0.0296 -0.004,0.006 -0.009,0.0103 -0.0127,0.0169 l -1.03796,2.19393 h -1.61634 -0.36221 -2.66991 -0.36248 -3.9669 -0.36248 -2.6207 -0.36248 -3.9658399 -0.36221 -2.66991 -0.36248 -7.98618 -0.36248 -6.09521 z"
       id="path64" />
    <path
       inkscape:connector-curvature="0"
       d="m 45.843301,290.11036 h -5.70917 v -5.25542 h 2.11058 v 3.88355 h 0.10557 c 0.21087,0 0.45376,-0.12673 0.45376,-0.21113 v -0.67548 h 2.16349 v 0.69664 h 0.11589 c 0.22172,0 0.45403,-0.12673 0.45403,-0.22172 v -3.47212 h 1.80445 c 0.14764,0 0.23231,-0.0423 0.26379,-0.15823 -0.32702,-0.3167 -0.87603,-0.7493 -0.87603,-0.7493 l -0.48551,0.60167 h -0.70697 v -2.37464 c 0.26379,-0.0318 0.35851,-0.13732 0.39053,-0.28495 l -0.96044,-0.10531 v 2.7649 h -2.1635 v -2.43787 c 0.26379,-0.0315 0.34819,-0.13706 0.37994,-0.27438 l -0.93927,-0.11615 v 2.8284 h -2.11058 v -2.23732 c 0.27437,-0.0423 0.35851,-0.14764 0.37994,-0.29554 l -0.93927,-0.11615 v 2.64901 h -1.68857 l 0.0844,0.30586 h 1.60417 v 6.43731 h 0.11615 c 0.21087,0 0.44318,-0.15822 0.44318,-0.24236 v -0.62283 h 6.849 c 0.1479,0 0.25321,-0.0526 0.28469,-0.16907 -0.35851,-0.32702 -0.92868,-0.7702 -0.92868,-0.7702 z m -3.03926,-5.25542 h 2.16349 v 2.69108 h -2.16349 z"
       id="path66"
       style="stroke-width:0.26458332" />
    <path
       inkscape:connector-curvature="0"
       d="m 53.210101,287.87331 -0.0109,0.0106 v -0.51726 h 2.03703 c 0.14763,0 0.24235,-0.0529 0.2741,-0.1688 -0.30612,-0.28496 -0.78105,-0.68607 -0.78105,-0.68607 l -0.44317,0.54875 h -1.08691 v -0.81254 c 0.22172,-0.0317 0.3167,-0.12673 0.33787,-0.2532 l -0.8972,-0.11616 v 1.1819 h -2.08968 l 0.0847,0.30612 h 1.72006 c -0.41169,1.10807 -1.07633,2.15291 -1.92088,2.98662 l 0.11589,0.15822 c 0.87604,-0.64347 1.58327,-1.4351 2.08968,-2.34262 v 3.1234 h 0.11589 c 0.20055,0 0.44317,-0.13705 0.44317,-0.21087 v -3.03927 c 0.4961,0.35878 1.07633,0.97076 1.2454,1.46659 0.66542,0.4011 1.01335,-1.01283 -1.23402,-1.63539 z"
       id="path68"
       style="stroke-width:0.26458332" />
    <path
       inkscape:connector-curvature="0"
       d="m 58.929601,285.32987 h -2.41671 v -2.32172 c 1.02368,-0.14764 2.20583,-0.45376 2.93397,-0.69638 0.23204,0.0738 0.40111,0.0844 0.48524,-0.0212 l -0.73845,-0.6014 c -0.55959,0.33761 -1.61502,0.78079 -2.55376,1.06574 l -0.68633,-0.23204 v 3.4298 c 0,1.99469 -0.28469,3.77798 -1.91002,5.19244 l 0.13731,0.13706 c 2.07884,-1.37213 2.33204,-3.44011 2.33204,-5.33982 v -0.31671 h 1.68857 v 5.66685 h 0.0844 c 0.29528,0 0.47493,-0.14738 0.47493,-0.20056 v -5.46629 h 1.21364 c 0.13732,0 0.24289,-0.0421 0.27438,-0.15822 -0.32703,-0.30612 -0.85461,-0.71755 -0.85461,-0.71755 z"
       id="path70"
       style="stroke-width:0.26458332" />
    <path
       inkscape:connector-curvature="0"
       d="m 55.383921,285.74156 c 0.1479,0 0.2532,-0.0529 0.2741,-0.15822 -0.30585,-0.30612 -0.82285,-0.71755 -0.82285,-0.71755 l -0.45376,0.56991 h -0.87604 c 0.35878,-0.48551 0.67548,-1.05542 0.88662,-1.4986 0.22172,0.0106 0.34793,-0.0844 0.39026,-0.20029 l -0.939,-0.28496 c -0.12674,0.60167 -0.35878,1.40362 -0.56992,1.98412 h -2.82813 l 0.0738,0.30612 h 4.8649 z"
       id="path72"
       style="stroke-width:0.26458332" />
    <path
       inkscape:connector-curvature="0"
       d="m 51.363041,283.52541 c 0.25321,0.44318 0.5379,1.15014 0.5379,1.68857 0.50668,0.49609 1.10834,-0.67548 -0.40111,-1.75207 z"
       id="path74"
       style="stroke-width:0.26458332" />
    <path
       inkscape:connector-curvature="0"
       d="m 55.120131,283.37777 c 0.1479,0 0.24262,-0.0529 0.27437,-0.16907 -0.30586,-0.30586 -0.8128,-0.6858 -0.8128,-0.6858 l -0.4326,0.53817 h -0.939 v -1.00278 c 0.22119,-0.0421 0.31618,-0.1479 0.33734,-0.27437 l -0.8972,-0.095 v 1.37186 h -2.01533 l 0.0841,0.31671 h 4.40108 z"
       id="path76"
       style="stroke-width:0.26458332" />
    <path
       inkscape:connector-curvature="0"
       d="m 68.153226,285.07666 h 4.231716 c 0.148427,0 0.253737,-0.0526 0.274367,-0.1688 -0.369087,-0.32703 -0.981324,-0.79164 -0.981324,-0.79164 l -0.516737,0.6649 h -3.187412 c 0.0844,-0.86545 0.095,-1.76239 0.11615,-2.68049 0.242357,-0.0317 0.327027,-0.1479 0.358507,-0.28496 l -1.002504,-0.11589 c 0,1.06575 0,2.1 -0.0844,3.08161 h -4.242308 l 0.0844,0.29554 h 4.126428 c -0.284957,2.34262 -1.203324,4.40055 -4.326988,6.02588 l 0.12674,0.18971 c 3.545671,-1.60391 4.516688,-3.78831 4.812225,-6.21559 0.316437,2.12116 1.181884,4.6011 4.200236,6.22644 0.095,-0.32703 0.327017,-0.42228 0.643987,-0.45377 l 0.0206,-0.1053 c -3.186622,-1.47823 -4.284106,-3.66263 -4.653723,-5.66764 z"
       id="path78"
       style="stroke-width:0.26458332" />
    <path
       inkscape:connector-curvature="0"
       d="m 81.461418,283.97917 c 0.16907,0.0529 0.28469,0.0317 0.34819,-0.0738 l -0.706957,-0.35877 c -0.127,0.22172 -0.285217,0.43259 -0.485777,0.65431 -0.23204,-0.12674 -0.527577,-0.24262 -0.897194,-0.33761 l -0.1053,0.11589 c 0.232037,0.11615 0.496087,0.29554 0.738977,0.49609 -0.32756,0.31671 -0.696647,0.59108 -1.055154,0.81254 l 0.115887,0.15822 c 0.41142,-0.17939 0.844277,-0.43259 1.213904,-0.69638 0.17938,0.17938 0.316167,0.36935 0.390787,0.54874 0.37941,0.21114 0.590547,-0.32702 -0.0217,-0.84428 0.17912,-0.15849 0.33787,-0.31671 0.464337,-0.47493 z"
       id="path80"
       style="stroke-width:0.26458332" />
    <path
       inkscape:connector-curvature="0"
       d="m 79.40377,283.57806 c 0.37994,-0.17939 0.780777,-0.41169 1.129234,-0.67548 0.17939,0.15822 0.32703,0.32702 0.411427,0.47493 0.35904,0.1688 0.548737,-0.30613 -0.0738,-0.75989 0.158747,-0.13732 0.295537,-0.28495 0.401107,-0.42227 0.190227,0.0526 0.295537,0.0317 0.348717,-0.0738 l -0.696647,-0.34846 c -0.116147,0.20056 -0.274367,0.4117 -0.453757,0.61225 -0.211404,-0.10557 -0.475464,-0.20055 -0.791641,-0.27464 l -0.095,0.12674 c 0.20056,0.10557 0.432597,0.2532 0.643467,0.41169 -0.28469,0.28496 -0.611977,0.54874 -0.939004,0.75988 z"
       id="path82"
       style="stroke-width:0.26458332" />
    <path
       inkscape:connector-curvature="0"
       d="m 83.719626,288.55937 h -3.017822 v -0.40111 c 0.221727,-0.0421 0.327027,-0.11588 0.348197,-0.26379 0.664627,-0.20055 1.371594,-0.51726 1.878001,-0.75988 0.200547,-0.0106 0.337867,-0.0315 0.422797,-0.095 l -0.717807,-0.67548 -0.411957,0.40111 h -4.653463 l 0.0945,0.31644 h 4.284376 c -0.34766,0.26406 -0.791107,0.55933 -1.213374,0.78105 l -0.601397,-0.0632 v 0.75988 h -4.400786 l 0.095,0.30586 h 4.305536 v 1.4777 c 0,0.16854 -0.0526,0.22119 -0.2532,0.22119 -0.221727,0 -1.361281,-0.0733 -1.361281,-0.0733 v 0.15822 c 0.474397,0.063 0.769937,0.1479 0.917834,0.23204 0.14791,0.095 0.21088,0.25321 0.24289,0.43259 0.917834,-0.0944 1.023664,-0.42227 1.023664,-0.91784 v -1.53035 h 4.073236 c 0.14791,0 0.24289,-0.0527 0.27438,-0.1688 -0.33735,-0.31671 -0.865187,-0.72813 -0.865187,-0.72813 z"
       id="path84"
       style="stroke-width:0.26458332" />
    <path
       inkscape:connector-curvature="0"
       d="m 84.046916,285.55159 h -0.34819 l 0.21087,-2.97604 c 0.169067,-0.0212 0.264057,-0.0423 0.327557,-0.11588 l -0.643997,-0.5805 -0.316707,0.34819 h -1.487741 l 0.095,0.30586 h 1.467111 l -0.0635,0.80222 h -1.424771 l 0.095,0.30586 h 1.308351 l -0.0526,0.80221 h -1.361271 l 0.0945,0.30613 h 1.245381 l -0.0635,0.80195 h -5.487427 l -0.0315,-0.80195 h 1.413931 c 0.13758,0 0.23257,-0.0529 0.26405,-0.16881 -0.24289,-0.24289 -0.622827,-0.53843 -0.622827,-0.53843 l -0.32702,0.40111 h -0.738444 l -0.0423,-0.80221 h 1.393281 c 0.13706,0 0.23204,-0.0527 0.26353,-0.16881 -0.23204,-0.24262 -0.611987,-0.53842 -0.611987,-0.53842 l -0.30638,0.4011 h -0.748764 l -0.0423,-0.78105 c 0.559057,-0.095 1.129234,-0.24262 1.487741,-0.35877 0.13758,0.0526 0.24289,0.0423 0.28522,-0.0212 l -0.633677,-0.50668 c -0.23204,0.15849 -0.611977,0.37995 -1.002494,0.56992 l -0.696647,-0.22146 0.1479,3.53536 h -0.39026 c -0.0109,-0.12673 -0.0315,-0.26405 -0.0635,-0.41169 h -0.16854 c -0.0212,0.69639 -0.411964,1.16073 -0.644004,1.29805 -0.569907,0.34819 -0.17938,0.86545 0.348204,0.59081 0.33734,-0.20055 0.537887,-0.6014 0.537887,-1.17131 h 7.334481 c -0.12674,0.30586 -0.30586,0.67548 -0.42228,0.90752 l 0.13759,0.0738 c 0.327017,-0.22145 0.780777,-0.61198 1.033984,-0.88635 0.20055,-0.0106 0.32702,-0.0212 0.401107,-0.095 l -0.738454,-0.71755 z"
       id="path86"
       style="stroke-width:0.26458332" />
    <path
       inkscape:connector-curvature="0"
       d="m 89.281666,288.05269 c 0.210877,-0.0106 0.316707,-0.11588 0.348187,-0.23204 l -0.854594,-0.18997 c -0.11615,0.96018 -0.36936,1.9947 -0.654307,2.7014 l 0.17938,0.0841 c 0.421747,-0.60087 0.749294,-1.51924 0.981334,-2.36353 z"
       id="path88"
       style="stroke-width:0.26458332" />
    <path
       inkscape:connector-curvature="0"
       d="m 89.091436,284.84462 c 0.443437,0.29554 0.801947,-0.36936 0.0847,-0.97075 0.379937,-0.47493 0.791624,-1.10808 1.139554,-1.65683 0.201077,0.0106 0.337867,-0.0738 0.390787,-0.18997 l -0.939004,-0.34819 c -0.23257,0.69639 -0.538427,1.47744 -0.791627,2.04735 -0.200557,-0.12674 -0.443437,-0.24263 -0.759614,-0.34819 l -0.10583,0.095 c 0.400837,0.3265 0.865444,0.89667 0.981064,1.3716 z"
       id="path90"
       style="stroke-width:0.26458332" />
    <path
       inkscape:connector-curvature="0"
       d="m 96.584394,290.62762 h -1.614481 v -2.61726 h 1.994158 c 0.13758,0 0.23204,-0.0526 0.26352,-0.1688 -0.31617,-0.28496 -0.812267,-0.68607 -0.812267,-0.68607 l -0.432587,0.54875 h -3.598839 l 0.0847,0.30586 h 1.931188 v 2.61725 h -2.838965 l 0.0841,0.30586 h 5.973207 c 0.1479,0 0.232037,-0.0527 0.264047,-0.15822 -0.327017,-0.30586 -0.833954,-0.71781 -0.833954,-0.71781 z"
       id="path92"
       style="stroke-width:0.26458332" />
    <path
       inkscape:connector-curvature="0"
       d="m 95.56073,283.45133 -0.844287,-0.28496 c -0.137047,0.35877 -0.622824,1.3507 -0.907514,1.88912 0.559067,0.56992 0.949854,1.4142 1.044834,1.9103 0.517257,0.4011 1.171044,-0.72814 -0.760144,-1.94178 0.369357,-0.42228 0.960704,-1.17158 1.171571,-1.46685 0.16907,0.0315 0.26352,-0.0212 0.29554,-0.10583 z"
       id="path94"
       style="stroke-width:0.26458332" />
    <path
       inkscape:connector-curvature="0"
       d="m 97.513078,282.67054 c 0.14737,0 0.2532,-0.0423 0.27437,-0.15822 -0.32702,-0.30612 -0.844277,-0.70697 -0.844277,-0.70697 l -0.464607,0.55933 h -4.674633 l 0.0738,0.30586 z"
       id="path96"
       style="stroke-width:0.26458332" />
    <path
       inkscape:connector-curvature="0"
       d="m 93.766599,283.3566 -0.865184,-0.27437 c -0.127,0.36936 -0.580757,1.4142 -0.855127,1.97326 0.548737,0.60167 0.918367,1.48802 1.013347,2.01586 0.506407,0.41143 1.192731,-0.75988 -0.738977,-2.04734 0.359037,-0.44318 0.949844,-1.24539 1.150404,-1.55125 0.169067,0.0315 0.264047,-0.0214 0.295537,-0.11616 z"
       id="path98"
       style="stroke-width:0.26458332" />
    <path
       inkscape:connector-curvature="0"
       d="m 97.355118,283.40926 -0.876554,-0.27438 c -0.12621,0.35878 -0.590547,1.37187 -0.886354,1.92061 0.591077,0.56992 0.992184,1.44569 1.108074,1.95236 0.527577,0.40111 1.203581,-0.77046 -0.812267,-1.99469 0.369357,-0.43259 0.960164,-1.20279 1.171564,-1.47717 0.15796,0.0209 0.252937,-0.0423 0.295537,-0.12673 z"
       id="path100"
       style="stroke-width:0.26458332" />
    <path
       inkscape:connector-curvature="0"
       d="m 90.959644,287.61984 -0.147897,0.0527 c 0.263527,0.48551 0.548747,1.27714 0.548747,1.85737 0.517257,0.52785 1.129234,-0.69638 -0.40085,-1.91002 z"
       id="path102"
       style="stroke-width:0.26458332" />
    <path
       inkscape:connector-curvature="0"
       d="m 88.152432,286.2903 0.295537,0.71755 c 0.0945,-0.0212 0.18971,-0.0738 0.25321,-0.21113 0.432587,-0.0632 0.812264,-0.12647 1.171564,-0.17939 v 4.67466 h 0.0738 c 0.27438,0 0.47493,-0.14737 0.47493,-0.20056 v -4.56935 l 0.738444,-0.11615 c 0.0841,0.23204 0.14791,0.45376 0.15875,0.6649 0.548747,0.49609 1.107544,-0.72814 -0.569907,-1.79414 l -0.13758,0.0632 c 0.15822,0.22172 0.32702,0.52758 0.453757,0.8337 -0.591077,0.0317 -1.171571,0.0635 -1.677981,0.0844 0.738977,-0.89694 1.551244,-2.03677 2.026171,-2.82814 0.221717,0.0423 0.369357,-0.0317 0.432587,-0.13731 l -0.886347,-0.4117 c -0.474927,1.00251 -1.224221,2.37437 -1.868221,3.38746 -0.389727,0.0114 -0.717017,0.022 -0.938734,0.022 z"
       id="path104"
       style="stroke-width:0.26458332" />
    <path
       inkscape:connector-curvature="0"
       d="m 101.42863,290.71176 c 0,0.3167 0.0841,0.52758 0.25319,0.52758 0.31671,0 0.47493,-0.26353 0.48578,-0.6858 0.0418,-0.83344 -0.20056,-1.36129 -0.2114,-1.79388 0,-0.26405 0.0635,-0.58049 0.12673,-0.8972 0.11615,-0.47493 0.84429,-2.83872 1.20306,-4.10528 l -0.20055,-0.0421 c -1.47744,4.04177 -1.47744,4.04177 -1.62533,4.38996 -0.0841,0.23204 -0.11615,0.23204 -0.23204,0.23204 h -0.44291 v 0.24262 c 0.22119,0.0106 0.35825,0.0317 0.49556,0.13732 0.20056,0.14817 0.27463,0.95039 0.14791,1.9947 z"
       id="path106"
       style="stroke-width:0.26458332" />
    <path
       inkscape:connector-curvature="0"
       d="m 104.52106,284.31678 h 0.60139 c -0.0212,1.03425 -0.0738,1.45626 -0.17938,1.56183 -0.0526,0.0527 -0.11615,0.0632 -0.23257,0.0632 -0.1479,0 -0.41143,-0.0212 -0.6223,-0.0318 v 0.20055 c 0.15769,0.0212 0.31618,0.0526 0.39026,0.12674 0.095,0.0738 0.11615,0.21087 0.11615,0.32702 0.23204,0 0.45376,-0.0635 0.6223,-0.20055 0.25373,-0.21087 0.34818,-0.69638 0.35903,-2.00501 0.20055,-0.0317 0.31618,-0.0738 0.37994,-0.15822 l -0.65431,-0.50668 -0.28521,0.32702 h -1.64597 l 0.0945,0.29554 h 0.55958 c -0.0526,0.71755 -0.24288,1.57242 -1.07631,2.32172 l 0.16907,0.16907 c 1.07658,-0.70697 1.30862,-1.68831 1.40387,-2.49052 z"
       id="path108"
       style="stroke-width:0.26458332" />
    <path
       inkscape:connector-curvature="0"
       d="m 101.70299,285.3931 c 0.66516,0.35878 1.02367,-0.99192 -0.94984,-1.23481 l -0.095,0.095 c 0.41196,0.25347 0.89719,0.71781 1.04483,1.13982 z"
       id="path110"
       style="stroke-width:0.26458332" />
    <path
       inkscape:connector-curvature="0"
       d="m 107.72911,286.38529 c 0.65431,-0.27437 1.17105,-0.51726 1.56157,-0.69665 0.19024,0.36936 0.43312,0.6649 0.72813,0.88662 0.0635,-0.2323 0.22172,-0.35877 0.4326,-0.39052 l 0.0108,-0.11616 c -0.65432,-0.32702 -1.16073,-0.98134 -1.45627,-1.86795 0.31671,-0.0844 0.61198,-0.16881 0.82312,-0.25348 0.22119,0.0635 0.31617,0.0317 0.35851,-0.0632 l -0.67548,-0.43259 c -0.27438,0.1688 -0.6858,0.43259 -1.05516,0.63314 l -0.72813,-0.18997 v 1.98411 c -0.21141,0.0423 -0.38048,0.0844 -0.50642,0.10557 l 0.30586,0.63315 c 0.0844,-0.0315 0.15822,-0.11615 0.20082,-0.23204 z m 0.49609,-1.98411 c 0.17939,-0.0423 0.37995,-0.0844 0.58023,-0.13732 0.0945,0.47493 0.22173,0.88636 0.39027,1.24539 -0.32703,0.0844 -0.66464,0.16881 -0.9705,0.24263 z"
       id="path112"
       style="stroke-width:0.26458332" />
    <path
       inkscape:connector-curvature="0"
       d="m 105.53387,283.1243 -0.12673,0.0741 c 0.27437,0.24263 0.54874,0.70697 0.59055,1.05543 0.4646,0.36909 0.90804,-0.58076 -0.46382,-1.12951 z"
       id="path114"
       style="stroke-width:0.26458332" />
    <path
       inkscape:connector-curvature="0"
       d="m 108.0773,283.38809 -0.76015,-0.31671 c -0.21087,0.55933 -0.47492,1.11866 -0.71727,1.48802 l -0.28522,-0.0318 v 2.10026 h 0.10583 c 0.18971,0 0.41142,-0.12673 0.41142,-0.20055 v -1.57242 c 0.20055,-0.0317 0.29554,-0.11589 0.30586,-0.23204 l -0.2847,-0.0317 c 0.29501,-0.27437 0.6014,-0.6649 0.84376,-1.04484 0.2114,0.0317 0.33814,-0.0526 0.38047,-0.15822 z"
       id="path116"
       style="stroke-width:0.26458332" />
    <path
       inkscape:connector-curvature="0"
       d="m 102.46261,283.19812 c 0.67601,0.33761 1.0025,-1.00277 -1.09695,-1.34038 l -0.095,0.0844 c 0.44264,0.29554 1.00223,0.8128 1.19194,1.25598 z"
       id="path118"
       style="stroke-width:0.26458332" />
    <path
       inkscape:connector-curvature="0"
       d="m 110.03998,283.05048 c 0.1479,0 0.24289,-0.0526 0.27437,-0.1688 -0.32702,-0.29554 -0.84428,-0.69639 -0.84428,-0.69639 l -0.46408,0.54875 h -2.13175 v -0.69638 c 0.23204,-0.0423 0.32703,-0.13732 0.34819,-0.26406 l -0.90804,-0.0947 v 1.05516 h -2.98633 l 0.0841,0.31671 h 6.62778 z"
       id="path120"
       style="stroke-width:0.26458332" />
    <path
       inkscape:connector-curvature="0"
       d="m 109.05864,291.07106 v -3.9788 c 0.26406,-0.0421 0.36936,-0.13706 0.39026,-0.28496 l -0.94985,-0.10557 v 0.82312 h -3.6298 v -0.46434 c 0.2532,-0.0317 0.31618,-0.12674 0.34766,-0.26406 l -0.90752,-0.1053 v 1.42478 c 0,1.03426 -0.20055,2.227 -1.33984,3.02895 l 0.1479,0.13705 c 0.98133,-0.52758 1.43509,-1.28772 1.6248,-2.04708 h 3.7568 v 2.04708 h 0.10583 c 0.22172,0 0.45376,-0.13705 0.45376,-0.21087 z m -0.55959,-2.14259 h -3.6933 c 0.0423,-0.27438 0.0635,-0.54875 0.0635,-0.80196 v -0.29554 h 3.6298 z"
       id="path122"
       style="stroke-width:0.26458332" />
    <path
       inkscape:connector-curvature="0"
       d="m 113.84998,287.02902 c 0.33787,-0.20055 0.53843,-0.6014 0.53843,-1.17131 h 7.33451 c -0.12673,0.30586 -0.30586,0.67548 -0.42227,0.90752 l 0.13705,0.0738 c 0.32703,-0.22146 0.78132,-0.61198 1.03452,-0.88635 0.20056,-0.0106 0.32703,-0.0212 0.40111,-0.095 l -0.73898,-0.71755 -0.41143,0.41169 h -0.34819 l 0.21087,-2.97603 c 0.16907,-0.0212 0.26406,-0.0423 0.32756,-0.11589 l -0.64453,-0.58049 -0.31617,0.34819 h -1.48829 l 0.095,0.30586 h 1.46711 l -0.063,0.80221 h -1.42531 l 0.095,0.30586 h 1.30889 l -0.0532,0.80222 h -1.36128 l 0.095,0.30612 h 1.24539 l -0.0635,0.80195 h -5.48746 l -0.032,-0.80195 h 1.41446 c 0.13705,0 0.23204,-0.0529 0.26405,-0.1688 -0.24288,-0.24289 -0.62283,-0.53843 -0.62283,-0.53843 l -0.32702,0.40111 h -0.73898 l -0.0423,-0.80222 h 1.3933 c 0.13758,0 0.23257,-0.0527 0.26405,-0.1688 -0.23256,-0.24263 -0.61224,-0.53843 -0.61224,-0.53843 l -0.30586,0.40111 h -0.7493 l -0.0423,-0.78105 c 0.55959,-0.095 1.12977,-0.24262 1.48828,-0.35878 0.13705,0.0527 0.24289,0.0423 0.28469,-0.0212 l -0.63315,-0.50668 c -0.23204,0.15848 -0.61198,0.37994 -1.0025,0.56991 l -0.69665,-0.22145 0.1479,3.53536 h -0.39079 c -0.0103,-0.12674 -0.0315,-0.26406 -0.063,-0.41169 h -0.16907 c -0.0212,0.69638 -0.41196,1.16072 -0.644,1.29804 -0.56964,0.34819 -0.17912,0.86545 0.34846,0.59108 z"
       id="path124"
       style="stroke-width:0.26458332" />
    <path
       inkscape:connector-curvature="0"
       d="m 118.37753,290.39558 v -1.53035 h 4.07353 c 0.1479,0 0.24288,-0.0526 0.27437,-0.1688 -0.33787,-0.31671 -0.86545,-0.72814 -0.86545,-0.72814 l -0.46408,0.59108 h -3.01837 v -0.40111 c 0.22172,-0.0421 0.32703,-0.11588 0.34819,-0.26379 0.66516,-0.20055 1.37213,-0.51726 1.87854,-0.75988 0.20056,-0.0106 0.33788,-0.0315 0.42228,-0.095 l -0.71782,-0.67548 -0.41142,0.40111 h -4.65402 l 0.095,0.31644 h 4.2844 c -0.34819,0.26406 -0.79163,0.55933 -1.21338,0.78105 l -0.60193,-0.0632 v 0.75988 h -4.40028 l 0.0945,0.30586 h 4.30557 v 1.4777 c 0,0.16854 -0.0526,0.22119 -0.25321,0.22119 -0.22172,0 -1.36128,-0.0733 -1.36128,-0.0733 v 0.15822 c 0.47493,0.063 0.77047,0.1479 0.91837,0.23204 0.1479,0.095 0.21087,0.25321 0.24236,0.43259 0.91863,-0.095 1.0242,-0.42254 1.0242,-0.9181 z"
       id="path126"
       style="stroke-width:0.26458332" />
    <path
       inkscape:connector-curvature="0"
       d="m 117.07922,283.57806 c 0.38047,-0.17939 0.78131,-0.41169 1.12924,-0.67548 0.17939,0.15822 0.32703,0.32702 0.41196,0.47493 0.35851,0.1688 0.54821,-0.30613 -0.0738,-0.75989 0.15822,-0.13732 0.29554,-0.28495 0.40111,-0.42227 0.1897,0.0526 0.29554,0.0317 0.34819,-0.0738 l -0.69665,-0.34846 c -0.11615,0.20056 -0.27437,0.4117 -0.45376,0.61225 -0.2114,-0.10557 -0.47493,-0.20055 -0.79163,-0.27464 l -0.0945,0.12674 c 0.20056,0.10557 0.4326,0.2532 0.64347,0.41169 -0.28522,0.28496 -0.61198,0.54874 -0.93901,0.75988 z"
       id="path128"
       style="stroke-width:0.26458332" />
    <path
       inkscape:connector-curvature="0"
       d="m 119.13715,283.97917 c 0.16907,0.0529 0.28522,0.0317 0.34819,-0.0738 l -0.70697,-0.35877 c -0.12673,0.22172 -0.28469,0.43259 -0.48524,0.65431 -0.23204,-0.12674 -0.52758,-0.24262 -0.8972,-0.33761 l -0.10531,0.11589 c 0.23204,0.11615 0.49557,0.29554 0.73845,0.49609 -0.32702,0.31671 -0.69664,0.59108 -1.05515,0.81254 l 0.11615,0.15822 c 0.41143,-0.17939 0.84375,-0.43259 1.21338,-0.69638 0.17938,0.17938 0.3167,0.36935 0.39079,0.54874 0.37994,0.21114 0.59055,-0.32702 -0.0212,-0.84428 0.17939,-0.15849 0.33787,-0.31671 0.46408,-0.47493 z"
       id="path130"
       style="stroke-width:0.26458332" />
    <path
       inkscape:connector-curvature="0"
       d="m 126.5775,287.56718 c 1.40361,-0.0844 2.65932,-0.15822 3.76766,-0.2323 v 3.98939 h 0.0841 c 0.28522,0 0.48578,-0.15822 0.48578,-0.20056 v -3.82032 c 1.19221,-0.0844 2.21588,-0.15822 3.10277,-0.23204 0.30585,0.29554 0.55906,0.59082 0.69664,0.86546 0.76994,0.36936 0.84376,-1.36128 -2.37516,-2.23732 l -0.10531,0.11589 c 0.47493,0.2532 1.03453,0.62283 1.51977,1.02367 -1.62533,0.0423 -3.17659,0.0844 -4.49527,0.11615 1.17105,-0.87603 2.47941,-2.05793 3.27104,-2.9128 0.24289,0.0529 0.40111,-0.0212 0.47493,-0.13705 l -0.86545,-0.44344 c -0.82259,1.04484 -2.15292,2.4802 -3.2602,3.50388 -1.25624,0.0212 -2.29023,0.0315 -2.95539,0.0315 l 0.39079,0.78105 c 0.0947,-0.0212 0.21061,-0.095 0.26326,-0.21114 z"
       id="path132"
       style="stroke-width:0.26458332" />
    <path
       inkscape:connector-curvature="0"
       d="m 126.0814,290.88083 0.11616,0.1479 c 1.09749,-0.62283 2.16376,-1.583 2.73314,-2.31114 0.24289,0.0526 0.32756,0.0106 0.40111,-0.095 l -0.81227,-0.42228 c -0.48578,0.8337 -1.47743,1.96268 -2.43814,2.6805 z"
       id="path134"
       style="stroke-width:0.26458332" />
    <path
       inkscape:connector-curvature="0"
       d="m 129.77525,282.80759 c -0.35904,0.61199 -0.86519,1.36155 -1.34038,1.94178 -0.34819,-0.2323 -0.84375,-0.44318 -1.50892,-0.61224 l -0.1053,0.12673 c 0.69665,0.37994 1.60417,1.10808 1.88939,1.70947 0.49556,0.24263 0.71728,-0.42201 -0.0744,-1.06574 0.63368,-0.51699 1.30889,-1.19247 1.73117,-1.72005 0.23204,0.0212 0.37994,-0.0423 0.43259,-0.16881 l -0.61224,-0.25347 c 1.40414,-0.12673 2.72282,-0.29554 3.78883,-0.46434 0.25321,0.12673 0.44344,0.12673 0.54875,0.0423 l -0.69665,-0.68606 c -1.77297,0.44317 -5.08662,0.96043 -7.72504,1.16099 l 0.0315,0.21087 c 1.1819,-0.0312 2.43761,-0.11589 3.64067,-0.22146 z"
       id="path136"
       style="stroke-width:0.26458332" />
    <path
       inkscape:connector-curvature="0"
       d="m 132.05464,288.26383 -0.10531,0.10531 c 0.90752,0.60139 2.15292,1.69915 2.53259,2.51169 0.77047,0.43259 0.96018,-1.29805 -2.42728,-2.617 z"
       id="path138"
       style="stroke-width:0.26458332" />
    <path
       inkscape:connector-curvature="0"
       d="m 40.046021,294.96837 c -0.19632,-0.16695 -0.43577,-0.26299 -0.71782,-0.28839 -0.0672,-0.007 -0.22277,-0.01 -0.46725,-0.01 h -1.10305 v 0.0553 c 0.12674,0.008 0.22331,0.045 0.28866,0.11059 0.0521,0.0532 0.0873,0.12039 0.10531,0.20214 0.018,0.0823 0.027,0.21141 0.027,0.38762 v 1.7735 c 0,0.16378 -0.007,0.28522 -0.0228,0.36433 -0.0156,0.0796 -0.0439,0.14526 -0.0852,0.19632 -0.0376,0.0466 -0.0796,0.0802 -0.12674,0.10081 -0.0466,0.0212 -0.10874,0.0341 -0.18626,0.0386 v 0.0553 h 1.48193 c 0.17251,0 0.34157,-0.0185 0.50747,-0.0553 0.22172,-0.0497 0.40693,-0.1659 0.55536,-0.34872 0.10557,-0.13018 0.18838,-0.2929 0.24791,-0.49001 0.0595,-0.19632 0.0892,-0.40508 0.0892,-0.6268 0,-0.30321 -0.0519,-0.58341 -0.15637,-0.84085 -0.10451,-0.25743 -0.25029,-0.4654 -0.43735,-0.62468 z m 0.037,2.02539 c -0.0474,0.18203 -0.11642,0.34369 -0.20743,0.48472 -0.0923,0.14631 -0.19685,0.25161 -0.3138,0.31617 -0.11695,0.0651 -0.25797,0.0976 -0.42227,0.0976 -0.19262,0 -0.33153,-0.0624 -0.41699,-0.18759 -0.0402,-0.0579 -0.0677,-0.12752 -0.0823,-0.20928 -0.0151,-0.0823 -0.0222,-0.20161 -0.0222,-0.35851 v -2.3921 h 0.24289 c 0.17357,0 0.31671,0.0185 0.42889,0.0558 0.20558,0.0688 0.38285,0.20981 0.53128,0.42333 0.10716,0.15399 0.18944,0.33391 0.24686,0.53896 0.0577,0.20505 0.0863,0.42227 0.0863,0.64955 0,0.20558 -0.0238,0.39873 -0.0712,0.58129 z"
       id="path140"
       style="stroke-width:0.26458332" />
    <path
       inkscape:connector-curvature="0"
       d="m 43.138471,297.683 c -0.0426,0.0511 -0.0963,0.0915 -0.16087,0.12038 -0.0643,0.0283 -0.13282,0.0434 -0.20452,0.0434 -0.0971,0 -0.19024,-0.0259 -0.27887,-0.0775 -0.0886,-0.0511 -0.16272,-0.12197 -0.22304,-0.2114 -0.0585,-0.0884 -0.10478,-0.19897 -0.13865,-0.33232 -0.0339,-0.13335 -0.0508,-0.26934 -0.0508,-0.40878 0,-0.0357 0.003,-0.0926 0.008,-0.17092 h 1.17475 c 0,-0.20214 -0.0487,-0.37041 -0.14631,-0.50535 -0.0627,-0.0868 -0.13944,-0.15293 -0.23045,-0.19844 -0.091,-0.046 -0.18997,-0.0688 -0.29687,-0.0688 -0.20055,0 -0.37914,0.0743 -0.53525,0.22384 -0.2151,0.20558 -0.32279,0.48842 -0.32279,0.84957 0,0.26459 0.0569,0.48789 0.17039,0.66861 0.0815,0.13017 0.18124,0.22621 0.29898,0.28892 0.11721,0.0624 0.2585,0.0939 0.42307,0.0939 0.18997,0 0.34184,-0.0476 0.45641,-0.14314 0.11403,-0.0955 0.18864,-0.23707 0.22357,-0.42466 l -0.0421,-0.0169 c -0.0355,0.12329 -0.0765,0.21325 -0.12462,0.26961 z m -0.88424,-1.57877 c 0.0857,-0.1188 0.186,-0.1778 0.30057,-0.1778 0.068,0 0.13176,0.0227 0.19156,0.0683 0.0601,0.046 0.10795,0.10795 0.14393,0.18653 0.0397,0.0868 0.0643,0.21035 0.0736,0.37042 h -0.86228 c 0.0159,-0.17912 0.0667,-0.32861 0.15267,-0.44741 z"
       id="path142"
       style="stroke-width:0.26458332" />
    <path
       inkscape:connector-curvature="0"
       d="m 45.984061,296.09232 c -0.14419,-0.14631 -0.3175,-0.21907 -0.52043,-0.21907 -0.10134,0 -0.19553,0.0175 -0.28205,0.0516 -0.0868,0.0347 -0.17991,0.0921 -0.2786,0.17198 v -0.0455 c 0,-0.064 -0.007,-0.13493 -0.0222,-0.21193 l -0.58553,0.0987 v 0.0601 c 0.11245,0 0.19235,0.0386 0.23972,0.11589 0.0474,0.0773 0.0714,0.20558 0.0714,0.38708 v 1.66079 c 0,0.13944 -0.003,0.24713 -0.009,0.32253 -0.006,0.0754 -0.0164,0.13123 -0.0312,0.16854 -0.0212,0.0558 -0.0495,0.095 -0.0841,0.11721 -0.0347,0.0228 -0.0921,0.0402 -0.17225,0.0532 v 0.0505 h 0.88636 v -0.0505 c -0.10028,-0.0212 -0.16934,-0.0526 -0.20638,-0.096 -0.031,-0.0352 -0.0513,-0.0781 -0.0622,-0.12859 -0.0106,-0.05 -0.0161,-0.12964 -0.0161,-0.23865 v -0.16537 l -0.002,-0.44185 c 0.096,0.0931 0.18045,0.15716 0.25321,0.19235 0.0725,0.0357 0.15928,0.0532 0.25929,0.0532 0.20928,0 0.39026,-0.078 0.54266,-0.23363 0.0971,-0.0976 0.17224,-0.22225 0.22516,-0.37306 0.0526,-0.15028 0.0791,-0.31326 0.0791,-0.48842 0,-0.16854 -0.0249,-0.32253 -0.0741,-0.46196 -0.0492,-0.13944 -0.11986,-0.25585 -0.21087,-0.34899 z m -0.11615,1.25386 c -0.0347,0.13124 -0.0836,0.24554 -0.1479,0.34158 -0.10531,0.16007 -0.22834,0.24077 -0.36936,0.24077 -0.0627,0 -0.12435,-0.0185 -0.18468,-0.0553 -0.0606,-0.0368 -0.1098,-0.0857 -0.14711,-0.14684 -0.0413,-0.0693 -0.0699,-0.15981 -0.0857,-0.27226 -0.0161,-0.11218 -0.0238,-0.27913 -0.0238,-0.50032 0,-0.21193 0.008,-0.37518 0.0238,-0.49001 0.0161,-0.11483 0.0445,-0.21035 0.0857,-0.28734 0.0373,-0.0722 0.0873,-0.12912 0.14976,-0.17092 0.0624,-0.0413 0.12911,-0.0624 0.20002,-0.0624 0.14367,0 0.26564,0.0817 0.36539,0.24553 0.0585,0.0945 0.10425,0.20823 0.13706,0.34052 0.0325,0.13229 0.0489,0.26776 0.0489,0.40561 -2.7e-4,0.14261 -0.0175,0.2794 -0.0521,0.41142 z"
       id="path144"
       style="stroke-width:0.26458332" />
    <path
       inkscape:connector-curvature="0"
       d="m 48.860611,297.8272 c -0.0236,0.0175 -0.0561,0.0265 -0.0974,0.0265 -0.0868,0 -0.14155,-0.0569 -0.1643,-0.17065 -0.0109,-0.0548 -0.0161,-0.15716 -0.0161,-0.30798 v -0.89032 c 0,-0.11377 -0.005,-0.19473 -0.0161,-0.24289 -0.0217,-0.0945 -0.0759,-0.17198 -0.16272,-0.23098 -0.0603,-0.0402 -0.13547,-0.0733 -0.22516,-0.0987 -0.0897,-0.0259 -0.17595,-0.0386 -0.25903,-0.0386 -0.0733,0 -0.14896,0.009 -0.22595,0.0278 -0.077,0.018 -0.14155,0.0418 -0.19368,0.0709 -0.0963,0.0564 -0.14472,0.12515 -0.14472,0.20717 0,0.0542 0.0156,0.0998 0.0463,0.136 0.0307,0.0357 0.0691,0.0537 0.1143,0.0537 0.0696,0 0.11747,-0.0378 0.14446,-0.11271 l 0.05,-0.13997 c 0.0212,-0.059 0.0534,-0.1053 0.096,-0.13943 0.0429,-0.0336 0.0915,-0.05 0.14658,-0.05 0.0455,0 0.0892,0.0119 0.13123,0.0362 0.0421,0.0238 0.0767,0.0558 0.10345,0.096 0.059,0.0863 0.0881,0.22384 0.0881,0.41143 0,0.0884 -0.008,0.15716 -0.0238,0.20717 -0.0164,0.0497 -0.0455,0.0931 -0.0884,0.12964 -0.0376,0.0336 -0.0836,0.0624 -0.13943,0.0868 -0.0553,0.0238 -0.14103,0.0532 -0.25771,0.0889 -0.099,0.0304 -0.17436,0.0606 -0.22648,0.0899 -0.0521,0.0299 -0.0982,0.0699 -0.13811,0.11933 -0.0712,0.09 -0.1061,0.20108 -0.1061,0.33443 0,0.14473 0.0429,0.25903 0.12938,0.34423 0.0863,0.0852 0.2032,0.12753 0.35031,0.12753 0.11509,0 0.21616,-0.0288 0.30321,-0.0868 0.0458,-0.0304 0.11324,-0.0937 0.2032,-0.19023 0.0439,0.0915 0.0868,0.1561 0.12832,0.19288 0.0627,0.0558 0.14182,0.0841 0.23707,0.0841 0.17251,0 0.28258,-0.0841 0.33073,-0.25268 l -0.0339,-0.0243 c -0.0325,0.0529 -0.0601,0.0878 -0.0836,0.10557 z m -0.58049,-0.6522 c 0,0.20399 -0.0206,0.35957 -0.0619,0.46672 -0.0294,0.0823 -0.0728,0.14738 -0.13071,0.19632 -0.0582,0.0492 -0.11985,0.0733 -0.18494,0.0733 -0.0746,0 -0.13653,-0.0341 -0.18494,-0.10345 -0.0484,-0.0693 -0.0728,-0.1561 -0.0728,-0.26246 0,-0.12357 0.0312,-0.23152 0.0939,-0.32465 0.0304,-0.045 0.0646,-0.0836 0.10186,-0.11589 0.0373,-0.0323 0.10478,-0.0791 0.20188,-0.14208 0.0868,-0.0542 0.16616,-0.11774 0.23786,-0.1897 v 0.4019 z"
       id="path146"
       style="stroke-width:0.26458332" />
    <path
       inkscape:connector-curvature="0"
       d="m 50.875151,295.87325 c -0.14155,0 -0.26802,0.0476 -0.37915,0.14208 -0.0601,0.0511 -0.1143,0.127 -0.16219,0.22834 0,-0.10293 -0.0114,-0.22622 -0.0347,-0.37042 l -0.51673,0.0868 v 0.0505 c 0.0601,0.005 0.1061,0.0169 0.13811,0.0368 0.0323,0.0201 0.0595,0.0527 0.0825,0.0971 0.0228,0.0413 0.0373,0.0955 0.0439,0.16166 0.007,0.0661 0.0101,0.1815 0.0101,0.34581 v 0.59161 c 0,0.13996 -0.003,0.24765 -0.009,0.32199 -0.006,0.0738 -0.0167,0.12965 -0.031,0.16643 -0.0214,0.0558 -0.0497,0.095 -0.0841,0.11827 -0.0349,0.0233 -0.0926,0.0407 -0.1725,0.0537 v 0.0505 h 0.88635 v -0.0505 c -0.10028,-0.0222 -0.16907,-0.0553 -0.20637,-0.0987 -0.0307,-0.0336 -0.0513,-0.0754 -0.0622,-0.12621 -0.0106,-0.05 -0.0161,-0.13018 -0.0161,-0.23865 l -0.002,-0.18283 v -0.449 c 0,-0.25162 0.0257,-0.44794 0.0765,-0.58923 0.0505,-0.14102 0.12144,-0.2114 0.21246,-0.2114 0.0669,0 0.12514,0.031 0.17462,0.0937 l 0.0619,0.0818 c 0.0333,0.045 0.0728,0.0677 0.11827,0.0677 0.0386,0 0.0706,-0.0145 0.095,-0.0434 0.0249,-0.0288 0.0373,-0.0656 0.0373,-0.11059 0,-0.0609 -0.0206,-0.11219 -0.0619,-0.15399 -0.0458,-0.0466 -0.11192,-0.0698 -0.19897,-0.0698 z"
       id="path148"
       style="stroke-width:0.26458332" />
    <path
       inkscape:connector-curvature="0"
       d="m 52.943401,297.84519 c -0.04,0.0294 -0.09,0.0445 -0.15002,0.0445 -0.0479,0 -0.0929,-0.0109 -0.13388,-0.0336 -0.0413,-0.0222 -0.0746,-0.0537 -0.10001,-0.0939 -0.0482,-0.0717 -0.0717,-0.19235 -0.0717,-0.36063 v -1.40044 h 0.50932 v -0.0915 h -0.50932 v -0.62574 h -0.0746 l -0.0204,0.0796 c -0.0243,0.0931 -0.0497,0.16907 -0.0765,0.22727 -0.0267,0.0582 -0.0624,0.11721 -0.10689,0.17675 -0.0738,0.096 -0.15399,0.16113 -0.24077,0.19526 v 0.0384 h 0.21457 v 1.45839 c 0,0.13943 0.006,0.23627 0.018,0.28998 0.0119,0.0537 0.0373,0.0998 0.0762,0.13838 0.072,0.0738 0.18733,0.11059 0.34502,0.11059 0.1188,0 0.21802,-0.0233 0.29766,-0.0698 0.0796,-0.0466 0.14155,-0.11827 0.18547,-0.21458 l -0.0299,-0.031 c -0.0487,0.0786 -0.0926,0.13229 -0.13229,0.16219 z"
       id="path150"
       style="stroke-width:0.26458332" />
    <path
       inkscape:connector-curvature="0"
       d="m 56.734881,297.67929 c -0.0109,-0.05 -0.0161,-0.13017 -0.0161,-0.23865 l -0.002,-0.18283 v -0.81491 c 0,-0.1696 -0.0505,-0.30692 -0.15134,-0.41196 -0.10081,-0.10504 -0.23151,-0.15769 -0.39185,-0.15769 -0.11906,0 -0.22993,0.0288 -0.33311,0.0868 -0.10293,0.058 -0.20505,0.14843 -0.30665,0.27173 -0.0653,-0.11589 -0.12383,-0.19632 -0.17437,-0.24289 -0.0841,-0.077 -0.18917,-0.11589 -0.31458,-0.11589 -0.11378,0 -0.22331,0.0288 -0.32782,0.0868 -0.10504,0.0579 -0.19976,0.14049 -0.2839,0.24818 -0.007,-0.11113 -0.0222,-0.22278 -0.046,-0.33497 l -0.55139,0.0823 v 0.05 c 0.0601,0.005 0.10609,0.0175 0.13837,0.0373 0.032,0.0201 0.0595,0.0526 0.0823,0.0971 0.0228,0.0418 0.0373,0.0955 0.0439,0.16219 0.007,0.0661 0.01,0.18204 0.01,0.34687 v 0.59267 c 0,0.14102 -0.003,0.24844 -0.009,0.32306 -0.006,0.0743 -0.0164,0.13017 -0.031,0.16695 -0.0214,0.0564 -0.0497,0.0955 -0.0841,0.1188 -0.0349,0.0233 -0.0923,0.0407 -0.1725,0.0537 v 0.0505 h 0.88635 v -0.0505 c -0.10028,-0.0222 -0.16907,-0.0553 -0.20611,-0.0987 -0.031,-0.0336 -0.0516,-0.0754 -0.0622,-0.12621 -0.0109,-0.05 -0.0164,-0.13018 -0.0164,-0.23865 l -0.002,-0.17833 v -0.43974 c 0,-0.14579 0.007,-0.26458 0.023,-0.35666 0.0153,-0.0921 0.041,-0.17092 0.077,-0.2368 0.0386,-0.0738 0.0915,-0.13229 0.15822,-0.17568 0.0667,-0.0429 0.13785,-0.0646 0.21405,-0.0646 0.0667,0 0.12673,0.0161 0.18018,0.0492 0.0534,0.0331 0.0947,0.0781 0.12382,0.136 0.0283,0.0542 0.0474,0.12514 0.0574,0.21246 0.01,0.0873 0.0151,0.22489 0.0151,0.41248 v 0.4445 c 0,0.13944 -0.003,0.24659 -0.009,0.32094 -0.006,0.0743 -0.0161,0.13018 -0.031,0.16695 -0.0228,0.0564 -0.0508,0.0955 -0.0852,0.11933 -0.0339,0.0233 -0.091,0.0408 -0.17118,0.0537 v 0.0505 h 0.88662 v -0.0505 c -0.10187,-0.0222 -0.17119,-0.0553 -0.20876,-0.0987 -0.0294,-0.0336 -0.0495,-0.0754 -0.0601,-0.12621 -0.0109,-0.05 -0.0161,-0.13017 -0.0161,-0.23865 l -0.002,-0.18283 v -0.46355 c 0,-0.26776 0.0325,-0.46513 0.0979,-0.59108 0.0746,-0.1479 0.19447,-0.22119 0.35983,-0.22119 0.15346,0 0.26141,0.0677 0.32412,0.204 0.027,0.0579 0.045,0.12753 0.0542,0.20928 0.009,0.0818 0.014,0.2114 0.014,0.3892 v 0.45879 c 0,0.13944 -0.003,0.24659 -0.009,0.32094 -0.006,0.0743 -0.0167,0.13018 -0.0312,0.16695 -0.023,0.0564 -0.0513,0.0955 -0.0852,0.11933 -0.0341,0.0233 -0.0913,0.0408 -0.17119,0.0537 v 0.0505 h 0.88636 v -0.0505 c -0.10028,-0.0222 -0.16987,-0.0553 -0.20876,-0.0987 -0.031,-0.0336 -0.0508,-0.0754 -0.0616,-0.12621 z"
       id="path152"
       style="stroke-width:0.26458332" />
    <path
       inkscape:connector-curvature="0"
       d="m 59.352401,297.683 c -0.0426,0.0511 -0.0963,0.0915 -0.16087,0.12038 -0.0643,0.0283 -0.13282,0.0434 -0.20478,0.0434 -0.0971,0 -0.19024,-0.0259 -0.27861,-0.0775 -0.0889,-0.0511 -0.16272,-0.12197 -0.22304,-0.2114 -0.0587,-0.0884 -0.10478,-0.19897 -0.13865,-0.33232 -0.0341,-0.13335 -0.0511,-0.26934 -0.0511,-0.40878 0,-0.0357 0.003,-0.0926 0.008,-0.17092 h 1.17502 c 0,-0.20214 -0.0492,-0.37041 -0.14658,-0.50535 -0.0627,-0.0868 -0.1397,-0.15293 -0.23072,-0.19844 -0.091,-0.046 -0.1897,-0.0688 -0.29659,-0.0688 -0.20056,0 -0.37915,0.0743 -0.53526,0.22384 -0.21537,0.20558 -0.32305,0.48842 -0.32305,0.84957 0,0.26459 0.0569,0.48789 0.17065,0.66861 0.0815,0.13017 0.18124,0.22621 0.29872,0.28892 0.11747,0.0627 0.25876,0.0939 0.42333,0.0939 0.18971,0 0.34158,-0.0476 0.45641,-0.14314 0.1143,-0.0955 0.18865,-0.23707 0.22331,-0.42466 l -0.0418,-0.0169 c -0.0352,0.12329 -0.0767,0.21325 -0.12462,0.26961 z m -0.8845,-1.57877 c 0.0857,-0.1188 0.18574,-0.1778 0.30057,-0.1778 0.0677,0 0.13176,0.0227 0.19155,0.0683 0.0601,0.046 0.10769,0.10795 0.14394,0.18653 0.0397,0.0868 0.0643,0.21035 0.0736,0.37042 h -0.86228 c 0.0159,-0.17912 0.0667,-0.32861 0.15266,-0.44741 z"
       id="path154"
       style="stroke-width:0.26458332" />
    <path
       inkscape:connector-curvature="0"
       d="m 62.283981,297.67929 c -0.0109,-0.05 -0.0161,-0.13017 -0.0161,-0.23865 v -1.01917 c 0,-0.17463 -0.0516,-0.30957 -0.15451,-0.40402 -0.10451,-0.096 -0.24183,-0.1442 -0.41328,-0.1442 -0.2286,0 -0.42572,0.10028 -0.59135,0.3003 v -0.0386 c 0,-0.0807 -0.01,-0.16801 -0.0283,-0.26141 l -0.54927,0.0868 v 0.0505 c 0.0606,0.005 0.10636,0.0169 0.13838,0.0368 0.032,0.0201 0.0595,0.0526 0.0823,0.0971 0.0228,0.0413 0.0376,0.0955 0.0442,0.16166 0.007,0.0661 0.0101,0.18151 0.0101,0.34581 v 0.59161 c 0,0.13996 -0.003,0.24765 -0.009,0.322 -0.006,0.0738 -0.0161,0.12964 -0.031,0.16642 -0.0212,0.0558 -0.0492,0.095 -0.0841,0.11827 -0.0347,0.0233 -0.0921,0.0408 -0.17225,0.0537 v 0.0505 h 0.88662 v -0.0505 c -0.10028,-0.0222 -0.16933,-0.0553 -0.20664,-0.0987 -0.0307,-0.0336 -0.0513,-0.0754 -0.0619,-0.12621 -0.0109,-0.05 -0.0161,-0.13017 -0.0161,-0.23865 l -0.002,-0.17833 v -0.47069 c 0,-0.18759 0.006,-0.322 0.0188,-0.40243 0.0127,-0.0812 0.0389,-0.15346 0.0791,-0.21749 0.0376,-0.0609 0.0884,-0.10901 0.15293,-0.1442 0.0648,-0.0352 0.13467,-0.0527 0.20902,-0.0527 0.0696,0 0.13282,0.0156 0.19024,0.0466 0.0574,0.0315 0.10133,0.0749 0.13202,0.13123 0.0281,0.0497 0.0471,0.11536 0.0572,0.19685 0.01,0.0817 0.0151,0.20981 0.0151,0.38444 v 0.50959 c 0,0.13943 -0.003,0.24659 -0.009,0.32094 -0.006,0.0743 -0.0164,0.13017 -0.0312,0.16695 -0.0212,0.0564 -0.0495,0.0955 -0.0841,0.11932 -0.0347,0.0233 -0.0921,0.0408 -0.17224,0.0537 v 0.0505 h 0.88662 v -0.0505 c -0.10028,-0.0222 -0.1696,-0.0553 -0.20664,-0.0987 -0.0318,-0.0339 -0.0524,-0.0757 -0.063,-0.12648 z"
       id="path156"
       style="stroke-width:0.26458332" />
    <path
       inkscape:connector-curvature="0"
       d="m 64.402241,297.84519 c -0.04,0.0294 -0.09,0.0445 -0.15002,0.0445 -0.0479,0 -0.0926,-0.0109 -0.13388,-0.0336 -0.0413,-0.0222 -0.0746,-0.0537 -0.10001,-0.0939 -0.0481,-0.0717 -0.0717,-0.19235 -0.0717,-0.36063 v -1.40044 h 0.50932 v -0.0915 h -0.50932 v -0.62574 h -0.0746 l -0.0201,0.0796 c -0.0243,0.0931 -0.0497,0.16907 -0.0767,0.22727 -0.027,0.0582 -0.0624,0.11721 -0.10689,0.17675 -0.0736,0.096 -0.15399,0.16113 -0.24077,0.19526 v 0.0384 h 0.21457 v 1.45839 c 0,0.13943 0.006,0.23627 0.018,0.28998 0.0119,0.0537 0.0376,0.0998 0.0762,0.13838 0.072,0.0738 0.18733,0.11059 0.34502,0.11059 0.1188,0 0.21802,-0.0233 0.29766,-0.0698 0.0796,-0.0466 0.14155,-0.11827 0.18547,-0.21458 l -0.0299,-0.031 c -0.0487,0.0786 -0.0926,0.13229 -0.13229,0.16219 z"
       id="path158"
       style="stroke-width:0.26458332" />
    <path
       inkscape:connector-curvature="0"
       d="m 68.087606,295.87325 c -0.27146,0 -0.504827,0.12356 -0.700087,0.37042 -0.16034,0.20399 -0.2405,0.4355 -0.2405,0.69558 0,0.12515 0.0196,0.24713 0.059,0.36592 0.0397,0.1188 0.096,0.22622 0.16959,0.32253 0.18865,0.24712 0.425717,0.37042 0.711997,0.37042 0.285747,0 0.522547,-0.12356 0.709864,-0.37042 0.15214,-0.20055 0.2286,-0.42942 0.2286,-0.6858 0,-0.25982 -0.0804,-0.49239 -0.24077,-0.69823 -0.193667,-0.24686 -0.426237,-0.37042 -0.697694,-0.37042 z m 0.525457,1.4605 c -0.0323,0.13547 -0.0741,0.24818 -0.12647,0.33734 -0.0497,0.0868 -0.10821,0.15399 -0.17648,0.20214 -0.0683,0.0482 -0.138107,0.0717 -0.210597,0.0717 -0.16987,0 -0.3138,-0.10795 -0.431007,-0.32465 -0.10451,-0.19367 -0.15663,-0.42995 -0.15663,-0.70855 0,-0.27596 0.0556,-0.50906 0.166417,-0.69982 0.10954,-0.19077 0.23998,-0.28575 0.39132,-0.28575 0.159277,0 0.293417,0.0905 0.402957,0.27119 0.0574,0.096 0.10345,0.21141 0.13732,0.34528 0.0344,0.13335 0.0511,0.26618 0.0511,0.39741 0,0.127 -0.0159,0.25823 -0.0479,0.3937 z"
       id="path160"
       style="stroke-width:0.26458332" />
    <path
       inkscape:connector-curvature="0"
       d="m 71.065738,294.567 c -0.11271,0 -0.21908,0.0169 -0.319877,0.0516 -0.10081,0.0347 -0.18653,0.0823 -0.25638,0.14314 -0.078,0.0688 -0.13229,0.1442 -0.16272,0.22622 -0.0299,0.0818 -0.0455,0.19315 -0.0455,0.33444 v 0.58711 h -0.29051 v 0.0915 h 0.29051 v 1.24037 c 0,0.14102 -0.003,0.24844 -0.009,0.32306 -0.006,0.0746 -0.0167,0.13017 -0.031,0.16695 -0.0212,0.0564 -0.0497,0.0955 -0.0841,0.11932 -0.0347,0.0233 -0.0926,0.0408 -0.17251,0.0537 v 0.0505 h 0.886344 v -0.0505 c -0.0998,-0.0222 -0.169067,-0.0553 -0.206107,-0.0987 -0.031,-0.0336 -0.0516,-0.0754 -0.0619,-0.12621 -0.0108,-0.05 -0.0161,-0.13018 -0.0161,-0.23866 l -0.003,-0.18282 v -1.25677 h 0.397407 v -0.0916 h -0.394757 v -0.63764 c 0,-0.13785 0.005,-0.24342 0.0161,-0.31618 0.0103,-0.0728 0.0299,-0.13229 0.0579,-0.17674 0.0254,-0.0402 0.0608,-0.0728 0.10583,-0.0976 0.0455,-0.0249 0.0939,-0.0373 0.144727,-0.0373 0.0413,0 0.0743,0.0114 0.0982,0.0347 0.0243,0.0233 0.0548,0.0717 0.0926,0.14578 0.027,0.0527 0.0532,0.091 0.0802,0.1143 0.027,0.0233 0.0579,0.0352 0.0939,0.0352 0.0378,0 0.0693,-0.0161 0.095,-0.0487 0.0265,-0.0315 0.0392,-0.0717 0.0392,-0.11986 0,-0.0722 -0.0315,-0.13017 -0.0939,-0.17303 -0.0635,-0.0439 -0.14658,-0.0656 -0.25109,-0.0656 z"
       id="path162"
       style="stroke-width:0.26458332" />
    <path
       inkscape:connector-curvature="0"
       d="m 76.054161,297.34354 c -0.0299,0.0884 -0.0693,0.16695 -0.11721,0.23627 -0.0683,0.10239 -0.1561,0.17833 -0.26458,0.22728 -0.107947,0.0487 -0.242357,0.0728 -0.402957,0.0728 -0.1524,0 -0.274897,-0.027 -0.368037,-0.0807 -0.0931,-0.0532 -0.16219,-0.13785 -0.20769,-0.25373 -0.027,-0.0672 -0.0444,-0.15082 -0.0542,-0.25109 -0.009,-0.10028 -0.0135,-0.26035 -0.0135,-0.47996 v -0.55086 h 0.1143 c 0.0987,0 0.18044,0.0119 0.24447,0.0357 0.064,0.0243 0.116147,0.0619 0.156627,0.11324 0.0413,0.0532 0.0733,0.11721 0.0971,0.19288 0.0233,0.0754 0.0413,0.17463 0.0532,0.29819 h 0.046 l 0.008,-1.28985 -0.046,-0.002 c -0.0119,0.12356 -0.027,0.21695 -0.045,0.28019 -0.018,0.0635 -0.0455,0.11827 -0.0831,0.16483 -0.0386,0.0498 -0.0889,0.0841 -0.150277,0.10346 -0.0614,0.0196 -0.15346,0.0288 -0.2749,0.0288 h -0.11986 v -1.44383 h 0.458787 c 0.14155,0 0.25532,0.0119 0.34105,0.0352 0.0852,0.0233 0.15981,0.063 0.222247,0.1188 0.0765,0.0677 0.13494,0.14526 0.17462,0.23363 0.0402,0.0884 0.0693,0.1995 0.0863,0.33443 l 0.046,-0.002 -0.0341,-0.79428 h -2.155278 v 0.0553 c 0.0775,0.005 0.13996,0.0175 0.18759,0.0386 0.0471,0.0206 0.0894,0.0542 0.125137,0.10081 0.0413,0.0516 0.0699,0.11668 0.0852,0.19632 0.0156,0.0791 0.0233,0.20056 0.0233,0.36433 v 1.7735 c 0,0.16378 -0.008,0.28523 -0.0233,0.36434 -0.0156,0.0796 -0.0439,0.14525 -0.0852,0.19632 -0.0373,0.0466 -0.0796,0.0802 -0.126997,0.1008 -0.0476,0.0212 -0.109,0.0341 -0.18547,0.0386 v 0.0553 h 2.392085 l 0.0265,-0.95753 -0.0466,-0.003 c -0.0262,0.14393 -0.0534,0.26088 -0.0839,0.34872 z"
       id="path164"
       style="stroke-width:0.26458332" />
    <path
       inkscape:connector-curvature="0"
       d="m 77.654622,296.18017 c 0.0402,-0.0699 0.09,-0.12806 0.148957,-0.17463 0.0667,-0.0526 0.13943,-0.0791 0.21802,-0.0791 0.0601,0 0.11059,0.018 0.15187,0.0553 0.0212,0.019 0.0378,0.0418 0.0487,0.0672 0.0114,0.0259 0.027,0.0738 0.0455,0.1442 0.0413,0.1524 0.1053,0.22886 0.19235,0.22886 0.0402,0 0.0744,-0.0175 0.10239,-0.0516 0.0278,-0.0347 0.0423,-0.0775 0.0423,-0.12859 0,-0.077 -0.0336,-0.1479 -0.10028,-0.21193 -0.11006,-0.10451 -0.261397,-0.15663 -0.455337,-0.15663 -0.1405,0 -0.26988,0.0299 -0.38815,0.0894 -0.11827,0.059 -0.21801,0.14472 -0.29977,0.25744 -0.0722,0.0976 -0.12912,0.21537 -0.170657,0.35348 -0.0415,0.13811 -0.0619,0.27755 -0.0619,0.41857 0,0.28893 0.0749,0.52811 0.224367,0.71729 0.15399,0.19235 0.36592,0.28892 0.63553,0.28892 0.16854,0 0.301357,-0.0378 0.397397,-0.11324 0.096,-0.0754 0.16748,-0.19791 0.21458,-0.36856 l -0.0402,-0.0167 c -0.0386,0.11536 -0.0796,0.19896 -0.12197,0.25003 -0.0841,0.0976 -0.190237,0.14684 -0.318297,0.14684 -0.15504,0 -0.28945,-0.0717 -0.40454,-0.21643 -0.0728,-0.0915 -0.13071,-0.20505 -0.17357,-0.34157 -0.0429,-0.13653 -0.064,-0.27596 -0.064,-0.41858 0,-0.15557 0.0233,-0.31458 0.0698,-0.47651 0.0302,-0.10583 0.0659,-0.19367 0.10689,-0.26352 z"
       id="path166"
       style="stroke-width:0.26458332" />
    <path
       inkscape:connector-curvature="0"
       d="m 80.557084,295.87325 c -0.271197,0 -0.504297,0.12356 -0.699827,0.37042 -0.160067,0.20399 -0.240237,0.4355 -0.240237,0.69558 0,0.12515 0.0196,0.24713 0.059,0.36592 0.0397,0.1188 0.096,0.22622 0.169597,0.32253 0.18865,0.24712 0.42572,0.37042 0.711467,0.37042 0.28627,0 0.523077,-0.12356 0.710137,-0.37042 0.1524,-0.20055 0.228327,-0.42942 0.228327,-0.6858 0,-0.25982 -0.0802,-0.49239 -0.240237,-0.69823 -0.19367,-0.24686 -0.426767,-0.37042 -0.698227,-0.37042 z m 0.525717,1.4605 c -0.032,0.13547 -0.0743,0.24818 -0.1262,0.33734 -0.0497,0.0868 -0.108477,0.15399 -0.176737,0.20214 -0.0683,0.0482 -0.13838,0.0717 -0.21035,0.0717 -0.1696,0 -0.313787,-0.10795 -0.430997,-0.32465 -0.10451,-0.19367 -0.15664,-0.42995 -0.15664,-0.70855 0,-0.27596 0.0553,-0.50906 0.16643,-0.69982 0.10953,-0.19077 0.239707,-0.28575 0.391307,-0.28575 0.15875,0 0.29343,0.0905 0.402967,0.27119 0.0574,0.096 0.10292,0.21141 0.13705,0.34528 0.0341,0.13335 0.0511,0.26618 0.0511,0.39741 0,0.127 -0.0159,0.25823 -0.0479,0.3937 z"
       id="path168"
       style="stroke-width:0.26458332" />
    <path
       inkscape:connector-curvature="0"
       d="m 84.229213,297.67929 c -0.0108,-0.05 -0.0161,-0.13017 -0.0161,-0.23865 v -1.01917 c 0,-0.17463 -0.0516,-0.30957 -0.154517,-0.40402 -0.10451,-0.096 -0.24183,-0.1442 -0.41301,-0.1442 -0.228867,0 -0.425717,0.10028 -0.591607,0.3003 v -0.0386 c 0,-0.0807 -0.009,-0.16801 -0.0283,-0.26141 l -0.548744,0.0868 v 0.0505 c 0.0601,0.005 0.105837,0.0169 0.137847,0.0368 0.032,0.0201 0.0595,0.0526 0.0823,0.0971 0.0228,0.0413 0.0378,0.0955 0.0445,0.16166 0.007,0.0661 0.01,0.18151 0.01,0.34581 v 0.59161 c 0,0.13996 -0.003,0.24765 -0.009,0.322 -0.006,0.0738 -0.0167,0.12964 -0.0315,0.16642 -0.0212,0.0558 -0.0492,0.095 -0.0841,0.11827 -0.0347,0.0233 -0.0921,0.0408 -0.171977,0.0537 v 0.0505 h 0.886354 v -0.0505 c -0.10028,-0.0222 -0.16907,-0.0553 -0.20664,-0.0987 -0.0304,-0.0336 -0.0511,-0.0754 -0.0619,-0.12621 -0.0108,-0.05 -0.0161,-0.13017 -0.0161,-0.23865 l -0.002,-0.17833 v -0.47069 c 0,-0.18759 0.006,-0.322 0.019,-0.40243 0.0124,-0.0812 0.0386,-0.15346 0.0791,-0.21749 0.0373,-0.0609 0.0884,-0.10901 0.15293,-0.1442 0.0646,-0.0352 0.13441,-0.0527 0.20875,-0.0527 0.0699,0 0.132817,0.0156 0.190237,0.0466 0.0574,0.0315 0.10133,0.0749 0.13229,0.13123 0.0278,0.0497 0.0466,0.11536 0.0569,0.19685 0.0103,0.0815 0.0151,0.20981 0.0151,0.38444 v 0.50959 c 0,0.13943 -0.003,0.24659 -0.009,0.32094 -0.006,0.0743 -0.0161,0.13017 -0.031,0.16695 -0.0212,0.0564 -0.0492,0.0955 -0.0836,0.11932 -0.0352,0.0233 -0.0926,0.0408 -0.17304,0.0537 v 0.0505 h 0.886887 v -0.0505 c -0.10028,-0.0222 -0.1696,-0.0553 -0.20664,-0.0987 -0.0315,-0.0339 -0.0521,-0.0757 -0.063,-0.12648 z"
       id="path170"
       style="stroke-width:0.26458332" />
    <path
       inkscape:connector-curvature="0"
       d="m 86.381061,295.87325 c -0.271197,0 -0.504827,0.12356 -0.699827,0.37042 -0.160597,0.20399 -0.240767,0.4355 -0.240767,0.69558 0,0.12515 0.0196,0.24713 0.059,0.36592 0.0397,0.1188 0.096,0.22622 0.169597,0.32253 0.18865,0.24712 0.42624,0.37042 0.711987,0.37042 0.28575,0 0.523077,-0.12356 0.710147,-0.37042 0.15187,-0.20055 0.228327,-0.42942 0.228327,-0.6858 0,-0.25982 -0.0802,-0.49239 -0.240767,-0.69823 -0.19394,-0.24686 -0.426507,-0.37042 -0.697707,-0.37042 z m 0.525457,1.4605 c -0.0325,0.13547 -0.0744,0.24818 -0.12674,0.33734 -0.0497,0.0868 -0.108477,0.15399 -0.176207,0.20214 -0.0688,0.0482 -0.13838,0.0717 -0.21087,0.0717 -0.1696,0 -0.313797,-0.10795 -0.431007,-0.32465 -0.10451,-0.19367 -0.15663,-0.42995 -0.15663,-0.70855 0,-0.27596 0.0558,-0.50906 0.16642,-0.69982 0.10954,-0.19077 0.240237,-0.28575 0.391317,-0.28575 0.15928,0 0.29342,0.0905 0.402957,0.27119 0.0574,0.096 0.10345,0.21141 0.13758,0.34528 0.0341,0.13335 0.0511,0.26618 0.0511,0.39741 2.7e-4,0.127 -0.0159,0.25823 -0.0479,0.3937 z"
       id="path172"
       style="stroke-width:0.26458332" />
    <path
       inkscape:connector-curvature="0"
       d="m 91.199894,297.67929 c -0.0109,-0.05 -0.0161,-0.13017 -0.0161,-0.23865 l -0.002,-0.18283 v -0.81491 c 0,-0.1696 -0.0505,-0.30692 -0.15134,-0.41196 -0.101337,-0.10477 -0.231507,-0.15769 -0.392117,-0.15769 -0.11879,0 -0.229917,0.0288 -0.332837,0.0868 -0.10292,0.058 -0.20505,0.14843 -0.30692,0.27173 -0.0651,-0.11589 -0.123557,-0.19632 -0.174097,-0.24289 -0.0841,-0.077 -0.18917,-0.11589 -0.31459,-0.11589 -0.11377,0 -0.223297,0.0288 -0.327547,0.0868 -0.1053,0.0579 -0.20003,0.14049 -0.28416,0.24818 -0.007,-0.11113 -0.0222,-0.22278 -0.0466,-0.33497 l -0.550864,0.0823 v 0.05 c 0.0601,0.005 0.106367,0.0175 0.138377,0.0373 0.032,0.0201 0.0595,0.0526 0.0818,0.0971 0.0233,0.0418 0.0378,0.0955 0.0444,0.16219 0.007,0.0661 0.01,0.18204 0.01,0.34687 v 0.59267 c 0,0.14102 -0.003,0.24844 -0.009,0.32306 -0.006,0.0746 -0.0167,0.13017 -0.031,0.16695 -0.0212,0.0564 -0.0497,0.0955 -0.0841,0.1188 -0.0344,0.0233 -0.0926,0.0407 -0.172507,0.0537 v 0.0505 h 0.886354 v -0.0505 c -0.10028,-0.0222 -0.16907,-0.0553 -0.20611,-0.0987 -0.031,-0.0336 -0.0516,-0.0754 -0.0624,-0.12621 -0.0109,-0.05 -0.0161,-0.13018 -0.0161,-0.23865 l -0.002,-0.17833 v -0.43974 c 0,-0.14579 0.007,-0.26458 0.0228,-0.35666 0.0156,-0.0921 0.0408,-0.17092 0.077,-0.2368 0.0386,-0.0738 0.091,-0.13229 0.15822,-0.17568 0.0667,-0.0429 0.13784,-0.0646 0.21404,-0.0646 0.0667,0 0.126737,0.0161 0.179917,0.0492 0.0537,0.0331 0.095,0.0781 0.12462,0.136 0.0275,0.0542 0.0466,0.12514 0.0569,0.21246 0.01,0.0873 0.0151,0.22489 0.0151,0.41248 v 0.4445 c 0,0.13944 -0.003,0.24659 -0.009,0.32094 -0.006,0.0743 -0.0161,0.13018 -0.031,0.16695 -0.0228,0.0564 -0.0511,0.0955 -0.0852,0.11933 -0.0336,0.0233 -0.091,0.0408 -0.17145,0.0537 v 0.0505 h 0.886887 v -0.0505 c -0.10187,-0.0222 -0.17145,-0.0553 -0.20876,-0.0987 -0.0294,-0.0336 -0.0497,-0.0754 -0.0601,-0.12621 -0.0109,-0.05 -0.0161,-0.13017 -0.0161,-0.23865 l -0.003,-0.18283 v -0.46355 c 0,-0.26776 0.0331,-0.46513 0.0982,-0.59108 0.0749,-0.1479 0.19474,-0.22119 0.360097,-0.22119 0.15346,0 0.26141,0.0677 0.32412,0.204 0.027,0.0579 0.045,0.12753 0.0542,0.20928 0.009,0.0818 0.014,0.2114 0.014,0.3892 v 0.45879 c 0,0.13944 -0.003,0.24659 -0.009,0.32094 -0.006,0.0743 -0.0161,0.13018 -0.031,0.16695 -0.0228,0.0564 -0.0505,0.0955 -0.0847,0.11933 -0.0347,0.0233 -0.0915,0.0408 -0.17198,0.0537 v 0.0505 h 0.886877 v -0.0505 c -0.10028,-0.0222 -0.17013,-0.0553 -0.20876,-0.0987 -0.0312,-0.0336 -0.0508,-0.0754 -0.0616,-0.12621 z"
       id="path174"
       style="stroke-width:0.26458332" />
    <path
       inkscape:connector-curvature="0"
       d="m 92.913325,294.94932 c 0.0341,-0.0397 0.0511,-0.0905 0.0511,-0.15134 0,-0.0595 -0.0175,-0.10954 -0.0521,-0.15028 -0.0352,-0.0413 -0.0786,-0.0614 -0.12912,-0.0614 -0.0511,0 -0.0939,0.0201 -0.12911,0.0614 -0.0352,0.0407 -0.0521,0.091 -0.0521,0.15028 0,0.0609 0.0169,0.11166 0.0511,0.15134 0.0341,0.0402 0.0775,0.0601 0.13017,0.0601 0.0524,0 0.0958,-0.0198 0.13018,-0.0601 z"
       id="path176"
       style="stroke-width:0.26458332" />
    <path
       inkscape:connector-curvature="0"
       d="m 92.960415,297.67982 c -0.0109,-0.05 -0.0161,-0.12964 -0.0161,-0.23812 l -0.002,-0.1823 v -1.38589 l -0.577317,0.0868 v 0.0505 c 0.0601,0.005 0.10583,0.0169 0.13784,0.0368 0.032,0.0201 0.0595,0.0526 0.0828,0.0971 0.0227,0.0413 0.0373,0.0955 0.0439,0.16166 0.007,0.0661 0.01,0.18151 0.01,0.34581 v 0.59161 c 0,0.13996 -0.003,0.24765 -0.009,0.322 -0.006,0.0738 -0.0167,0.12964 -0.031,0.16642 -0.0217,0.0558 -0.0497,0.095 -0.0841,0.11827 -0.0352,0.0233 -0.0926,0.0408 -0.1725,0.0537 v 0.0505 h 0.886344 v -0.0505 c -0.10028,-0.0222 -0.169067,-0.0553 -0.206107,-0.0982 -0.0312,-0.0336 -0.0519,-0.0754 -0.0627,-0.12621 z"
       id="path178"
       style="stroke-width:0.26458332" />
    <path
       inkscape:connector-curvature="0"
       d="m 94.711683,296.18017 c 0.0408,-0.0699 0.0905,-0.12806 0.14922,-0.17463 0.0661,-0.0526 0.13891,-0.0791 0.21749,-0.0791 0.0601,0 0.111127,0.018 0.151867,0.0553 0.0217,0.019 0.0378,0.0418 0.0492,0.0672 0.0114,0.0259 0.027,0.0738 0.0455,0.1442 0.0408,0.1524 0.10531,0.22886 0.19236,0.22886 0.0402,0 0.0743,-0.0175 0.10239,-0.0516 0.0283,-0.0347 0.0418,-0.0775 0.0418,-0.12859 0,-0.077 -0.0331,-0.1479 -0.10027,-0.21193 -0.10901,-0.10451 -0.26088,-0.15663 -0.455347,-0.15663 -0.13997,0 -0.26935,0.0299 -0.38762,0.0894 -0.118257,0.059 -0.218537,0.14472 -0.299767,0.25744 -0.0722,0.0976 -0.12912,0.21537 -0.17065,0.35348 -0.0415,0.13811 -0.0619,0.27755 -0.0619,0.41857 0,0.28893 0.0743,0.52811 0.22437,0.71729 0.15346,0.19235 0.365917,0.28892 0.635527,0.28892 0.168537,0 0.300827,-0.0378 0.396867,-0.11324 0.0966,-0.0754 0.16801,-0.19791 0.21511,-0.36856 l -0.0402,-0.0167 c -0.0386,0.11536 -0.0791,0.19896 -0.12197,0.25003 -0.0841,0.0976 -0.19024,0.14684 -0.318287,0.14684 -0.15452,0 -0.28946,-0.0717 -0.40402,-0.21643 -0.0738,-0.0915 -0.131757,-0.20505 -0.174097,-0.34157 -0.0429,-0.13653 -0.064,-0.27596 -0.064,-0.41858 0,-0.15557 0.0233,-0.31458 0.0699,-0.47651 0.0302,-0.10583 0.0664,-0.19367 0.106627,-0.26352 z"
       id="path180"
       style="stroke-width:0.26458332" />
    <path
       inkscape:connector-curvature="0"
       d="m 97.463598,296.76622 -0.211927,-0.11589 c -0.0987,-0.0526 -0.17145,-0.11113 -0.21908,-0.1741 -0.0476,-0.0635 -0.0714,-0.1344 -0.0714,-0.21299 0,-0.0944 0.027,-0.17462 0.0791,-0.23971 0.0526,-0.0651 0.11615,-0.0971 0.19129,-0.0971 0.0532,0 0.106887,0.0169 0.161657,0.0516 0.0548,0.0347 0.10292,0.0823 0.1442,0.14314 0.0304,0.0434 0.0542,0.0878 0.0709,0.13494 0.0167,0.0466 0.0325,0.10795 0.0471,0.18494 h 0.0423 l -0.0222,-0.5461 h -0.0402 c -0.0228,0.0482 -0.0466,0.0722 -0.0722,0.0722 -0.0161,0 -0.0347,-0.005 -0.0558,-0.0146 l -0.0683,-0.0362 c -0.059,-0.0288 -0.1225,-0.0434 -0.190227,-0.0434 -0.1524,0 -0.2749,0.0595 -0.36751,0.17833 -0.0802,0.10451 -0.120377,0.22834 -0.120377,0.37307 0,0.1344 0.0402,0.2532 0.120377,0.35612 0.0558,0.0717 0.16801,0.16167 0.33602,0.26935 0.096,0.0609 0.164307,0.10848 0.204527,0.14208 0.0407,0.0336 0.0749,0.0709 0.10133,0.1106 0.0482,0.0754 0.0722,0.16377 0.0722,0.26458 0,0.12356 -0.0336,0.21908 -0.10027,0.28628 -0.0614,0.0609 -0.13388,0.0916 -0.218017,0.0916 -0.13705,0 -0.25744,-0.0905 -0.35957,-0.27173 -0.0564,-0.0992 -0.10292,-0.23257 -0.14049,-0.39952 h -0.032 v 0.68104 h 0.032 c 0.0243,-0.0482 0.0595,-0.0722 0.10636,-0.0722 0.0185,0 0.0341,0.002 0.046,0.006 0.0124,0.004 0.0476,0.0196 0.10636,0.0471 0.091,0.0418 0.18045,0.0624 0.268817,0.0624 0.16324,0 0.29659,-0.064 0.4011,-0.19288 0.091,-0.1106 0.136527,-0.25004 0.136527,-0.41857 0,-0.13944 -0.0315,-0.26035 -0.0939,-0.36328 -0.0624,-0.10292 -0.15822,-0.18838 -0.28469,-0.25717 z"
       id="path182"
       style="stroke-width:0.26458332" />
    <path
       inkscape:connector-curvature="0"
       d="m 98.924359,297.40863 c -0.0656,0 -0.121977,0.0288 -0.168537,0.0868 -0.0471,0.0574 -0.0704,0.12673 -0.0704,0.20664 0,0.0831 0.0233,0.15081 0.0704,0.20373 0.0466,0.0516 0.10636,0.0781 0.179907,0.0781 0.027,0 0.0585,-0.007 0.0945,-0.0217 -0.008,0.10901 -0.0402,0.22172 -0.096,0.33682 -0.0362,0.0749 -0.0796,0.13705 -0.130177,0.18494 -0.0511,0.0482 -0.11986,0.0939 -0.20664,0.13759 l 0.018,0.0526 c 0.11483,-0.0288 0.2159,-0.0852 0.302947,-0.16854 0.0828,-0.0791 0.14923,-0.17992 0.1995,-0.30295 0.0503,-0.12303 0.0749,-0.24712 0.0749,-0.372 0,-0.127 -0.0243,-0.2294 -0.0738,-0.30639 -0.0495,-0.077 -0.1143,-0.11562 -0.19446,-0.11562 z"
       id="path184"
       style="stroke-width:0.26458332" />
    <path
       inkscape:connector-curvature="0"
       d="m 102.27211,296.03597 -0.28205,-0.16378 c -0.28681,-0.16378 -0.43047,-0.37994 -0.43047,-0.64796 0,-0.0672 0.0103,-0.13494 0.031,-0.20215 0.0206,-0.0677 0.0492,-0.1262 0.0852,-0.17621 0.0868,-0.12197 0.20505,-0.18283 0.35454,-0.18283 0.10239,0 0.19315,0.0299 0.27173,0.0905 0.0786,0.0601 0.15081,0.1524 0.21643,0.27755 0.0357,0.0693 0.0672,0.1442 0.0931,0.22542 0.0259,0.0812 0.0569,0.19791 0.0931,0.34978 h 0.046 l -0.014,-0.95488 h -0.046 c -0.0161,0.0818 -0.0476,0.1225 -0.0939,0.1225 -0.019,0 -0.0402,-0.004 -0.0646,-0.013 -0.0238,-0.009 -0.0693,-0.0294 -0.13599,-0.0614 -0.09,-0.045 -0.16166,-0.0749 -0.21511,-0.0905 -0.0532,-0.0151 -0.11165,-0.0228 -0.17462,-0.0228 -0.19315,0 -0.36116,0.0786 -0.5027,0.23574 -0.0807,0.0884 -0.14314,0.1942 -0.18759,0.31776 -0.045,0.12356 -0.0672,0.25162 -0.0672,0.38497 0,0.21643 0.0574,0.40005 0.17198,0.55086 0.0418,0.0548 0.0961,0.10848 0.16377,0.16114 0.0677,0.0532 0.16484,0.11774 0.29157,0.19526 0.14473,0.0878 0.25162,0.16113 0.322,0.21854 0.0704,0.058 0.12462,0.11774 0.16325,0.18045 0.0378,0.0609 0.0672,0.13441 0.0894,0.21908 0.0222,0.0852 0.0331,0.16853 0.0331,0.25003 0,0.1897 -0.05,0.34634 -0.15028,0.4691 -0.10028,0.12409 -0.22728,0.18548 -0.38074,0.18548 -0.22066,0 -0.40349,-0.13441 -0.54926,-0.40296 -0.0775,-0.14579 -0.14473,-0.34529 -0.20056,-0.59796 l -0.0466,-0.003 -0.006,0.99378 h 0.046 c 0.0238,-0.0765 0.0683,-0.11536 0.13229,-0.11536 0.0201,0 0.0384,0.003 0.0542,0.01 0.0161,0.006 0.0651,0.0309 0.14843,0.0743 0.15927,0.0817 0.32516,0.12303 0.49714,0.12303 0.18865,0 0.35243,-0.0511 0.49133,-0.15293 0.13891,-0.10187 0.24342,-0.24607 0.31274,-0.43313 0.0497,-0.1344 0.0743,-0.27543 0.0743,-0.4228 0,-0.22172 -0.0548,-0.41592 -0.16431,-0.58288 -0.0966,-0.14896 -0.25373,-0.28548 -0.47122,-0.40904 z"
       id="path186"
       style="stroke-width:0.26458332" />
    <path
       inkscape:connector-curvature="0"
       d="m 105.70029,297.67929 c -0.0103,-0.05 -0.0161,-0.13017 -0.0161,-0.23865 l -0.002,-0.18283 v -0.70167 c 0,-0.16166 -0.014,-0.28311 -0.0413,-0.36433 -0.0275,-0.0807 -0.0775,-0.14923 -0.15134,-0.20506 -0.10292,-0.0754 -0.2331,-0.11324 -0.39131,-0.11324 -0.12409,0 -0.23521,0.0288 -0.33231,0.0868 -0.0511,0.0288 -0.0945,0.0624 -0.13071,0.1008 -0.0363,0.0386 -0.0775,0.0921 -0.12409,0.16113 v -1.64809 l -0.57785,0.0863 v 0.0532 c 0.0601,0.005 0.10584,0.0167 0.13838,0.0362 0.032,0.019 0.0595,0.0511 0.0823,0.096 0.0228,0.0413 0.0373,0.0955 0.0439,0.16325 0.007,0.0672 0.01,0.1823 0.01,0.34581 v 1.88621 c 0,0.14103 -0.003,0.24845 -0.009,0.32306 -0.006,0.0743 -0.0161,0.13018 -0.031,0.16695 -0.0212,0.0564 -0.0497,0.096 -0.0841,0.11933 -0.0344,0.0233 -0.0926,0.0408 -0.17251,0.0537 v 0.0505 h 0.88583 v -0.0505 c -0.10028,-0.0222 -0.16854,-0.0553 -0.20611,-0.0987 -0.0304,-0.0336 -0.0511,-0.0754 -0.0619,-0.12621 -0.0103,-0.05 -0.0161,-0.13017 -0.0161,-0.23865 l -0.002,-0.17833 v -0.38444 c 0,-0.61198 0.16113,-0.91784 0.48365,-0.91784 0.12409,0 0.22014,0.0471 0.28839,0.14155 0.0347,0.0498 0.0595,0.10795 0.0738,0.17569 0.0151,0.0672 0.0222,0.15875 0.0222,0.27384 v 0.76174 c 0,0.1344 -0.005,0.23627 -0.014,0.30533 -0.009,0.0688 -0.0265,0.12356 -0.05,0.16324 -0.0238,0.0386 -0.0511,0.0656 -0.0812,0.0818 -0.0302,0.0161 -0.0802,0.0299 -0.15081,0.0408 v 0.0505 h 0.88582 v -0.0505 c -0.10081,-0.0222 -0.1696,-0.0553 -0.20664,-0.0987 -0.0307,-0.0333 -0.0519,-0.0752 -0.0627,-0.12595 z"
       id="path188"
       style="stroke-width:0.26458332" />
    <path
       inkscape:connector-curvature="0"
       d="m 107.41373,294.94932 c 0.0347,-0.0397 0.0516,-0.0905 0.0516,-0.15134 0,-0.0595 -0.0175,-0.10954 -0.0521,-0.15028 -0.0352,-0.0413 -0.0786,-0.0614 -0.12965,-0.0614 -0.0505,0 -0.0937,0.0201 -0.12859,0.0614 -0.0352,0.0407 -0.0526,0.091 -0.0526,0.15028 0,0.0609 0.0175,0.11166 0.0516,0.15134 0.0341,0.0402 0.0775,0.0601 0.12964,0.0601 0.0526,0 0.0961,-0.0198 0.13018,-0.0601 z"
       id="path190"
       style="stroke-width:0.26458332" />
    <path
       inkscape:connector-curvature="0"
       d="m 107.46135,297.67982 c -0.0109,-0.05 -0.0161,-0.12964 -0.0161,-0.23812 l -0.002,-0.1823 v -1.38589 l -0.57733,0.0868 v 0.0505 c 0.0601,0.005 0.10584,0.0169 0.13785,0.0368 0.032,0.0201 0.0595,0.0526 0.0823,0.0971 0.0233,0.0413 0.0378,0.0955 0.0444,0.16166 0.007,0.0661 0.01,0.18151 0.01,0.34581 v 0.59161 c 0,0.13996 -0.003,0.24765 -0.009,0.322 -0.006,0.0738 -0.0167,0.12964 -0.0315,0.16642 -0.0212,0.0558 -0.0492,0.095 -0.0836,0.11827 -0.0352,0.0233 -0.0926,0.0408 -0.17251,0.0537 v 0.0505 h 0.88636 v -0.0505 c -0.10028,-0.0222 -0.1696,-0.0553 -0.20664,-0.0982 -0.0307,-0.0336 -0.0513,-0.0754 -0.0622,-0.12621 z"
       id="path192"
       style="stroke-width:0.26458332" />
    <path
       inkscape:connector-curvature="0"
       d="m 110.40749,297.67929 c -0.0109,-0.05 -0.0161,-0.13017 -0.0161,-0.23865 l -0.002,-0.18283 v -0.70167 c 0,-0.16166 -0.0135,-0.28311 -0.0408,-0.36433 -0.0278,-0.0807 -0.0786,-0.14923 -0.15187,-0.20506 -0.10292,-0.0754 -0.23309,-0.11324 -0.39079,-0.11324 -0.12461,0 -0.23574,0.0288 -0.33337,0.0868 -0.0505,0.0288 -0.0939,0.0624 -0.13018,0.1008 -0.0357,0.0386 -0.0775,0.0921 -0.12409,0.16113 v -1.64809 l -0.57785,0.0863 v 0.0532 c 0.0601,0.005 0.10637,0.0167 0.13838,0.0362 0.032,0.019 0.0595,0.0511 0.0823,0.096 0.0228,0.0413 0.0373,0.0955 0.0444,0.16325 0.006,0.0672 0.01,0.1823 0.01,0.34581 v 1.88621 c 0,0.14103 -0.003,0.24845 -0.009,0.32306 -0.006,0.0746 -0.0167,0.13018 -0.031,0.16695 -0.0212,0.0564 -0.0497,0.096 -0.0841,0.11933 -0.0344,0.0233 -0.0921,0.0408 -0.17251,0.0537 v 0.0505 h 0.88583 v -0.0505 c -0.0998,-0.0222 -0.16854,-0.0553 -0.20611,-0.0987 -0.0304,-0.0336 -0.0511,-0.0754 -0.0614,-0.12621 -0.0108,-0.05 -0.0161,-0.13017 -0.0161,-0.23865 l -0.002,-0.17833 v -0.38444 c 0,-0.61198 0.16113,-0.91784 0.48419,-0.91784 0.12409,0 0.2196,0.0471 0.28786,0.14155 0.0347,0.0498 0.0595,0.10795 0.0738,0.17569 0.0151,0.0672 0.0222,0.15875 0.0222,0.27384 v 0.76174 c 0,0.1344 -0.005,0.23627 -0.0145,0.30533 -0.009,0.0688 -0.0259,0.12356 -0.0498,0.16324 -0.0238,0.0386 -0.0511,0.0656 -0.0812,0.0818 -0.0302,0.0161 -0.0807,0.0299 -0.15082,0.0408 v 0.0505 h 0.88583 v -0.0505 c -0.10028,-0.0222 -0.1696,-0.0553 -0.20664,-0.0987 -0.031,-0.0333 -0.0511,-0.0752 -0.0619,-0.12595 z"
       id="path194"
       style="stroke-width:0.26458332" />
    <path
       inkscape:connector-curvature="0"
       d="m 115.26233,294.72549 c 0.0775,0.005 0.13996,0.0175 0.18759,0.0386 0.0471,0.0206 0.09,0.0542 0.127,0.1008 0.0413,0.0516 0.0699,0.11615 0.0852,0.19473 0.0153,0.0786 0.0233,0.20056 0.0233,0.36592 v 0.77259 h -1.42373 v -0.77259 c 0,-0.16377 0.008,-0.28522 0.0228,-0.36433 0.0156,-0.0796 0.0439,-0.14472 0.0852,-0.19632 0.0373,-0.0466 0.0796,-0.0802 0.12753,-0.1008 0.0471,-0.0212 0.10901,-0.0341 0.18495,-0.0386 v -0.0553 h -1.28112 v 0.0553 c 0.0765,0.005 0.13838,0.0175 0.18653,0.0386 0.0482,0.0206 0.0905,0.0542 0.12621,0.1008 0.0429,0.0516 0.0717,0.11615 0.0862,0.19473 0.0146,0.0786 0.0222,0.20056 0.0222,0.36592 v 1.77351 c 0,0.16536 -0.008,0.28733 -0.0222,0.36591 -0.0145,0.0786 -0.0434,0.14367 -0.0862,0.19474 -0.0357,0.045 -0.0781,0.0781 -0.12515,0.0998 -0.0476,0.0217 -0.11006,0.0352 -0.18759,0.0397 v 0.0553 h 1.28112 v -0.0553 c -0.077,-0.005 -0.13997,-0.018 -0.18707,-0.0397 -0.0476,-0.0217 -0.0894,-0.0548 -0.12567,-0.0998 -0.0413,-0.0511 -0.0698,-0.11668 -0.0852,-0.19632 -0.0151,-0.0791 -0.0227,-0.20056 -0.0227,-0.36433 v -0.88768 h 1.42372 v 0.88768 c 0,0.16536 -0.008,0.28733 -0.0233,0.36591 -0.0156,0.0786 -0.0439,0.14367 -0.0852,0.19474 -0.0373,0.045 -0.0802,0.0781 -0.127,0.0998 -0.0476,0.0217 -0.11007,0.0352 -0.18759,0.0397 v 0.0553 h 1.28111 v -0.0553 c -0.0759,-0.005 -0.13784,-0.018 -0.18494,-0.0397 -0.0481,-0.0217 -0.0905,-0.0548 -0.12753,-0.0998 -0.0413,-0.0532 -0.0699,-0.1188 -0.0852,-0.19738 -0.0151,-0.0786 -0.0228,-0.1995 -0.0228,-0.36327 v -1.77351 c 0,-0.16377 0.008,-0.28522 0.0228,-0.36433 0.0156,-0.0796 0.0439,-0.14472 0.0852,-0.19632 0.0373,-0.0466 0.0796,-0.0802 0.12753,-0.1008 0.0471,-0.0212 0.10901,-0.0341 0.18494,-0.0386 v -0.0553 h -1.28111 v 0.0553 z"
       id="path196"
       style="stroke-width:0.26458332" />
    <path
       inkscape:connector-curvature="0"
       d="m 118.33546,296.76622 -0.21246,-0.11589 c -0.0987,-0.0526 -0.17145,-0.11113 -0.21854,-0.1741 -0.0476,-0.0635 -0.0714,-0.1344 -0.0714,-0.21299 0,-0.0944 0.0265,-0.17462 0.0791,-0.23971 0.0521,-0.0651 0.11615,-0.0971 0.19076,-0.0971 0.0532,0 0.10742,0.0169 0.16219,0.0516 0.0542,0.0347 0.1024,0.0823 0.1442,0.14314 0.0304,0.0434 0.0542,0.0878 0.0704,0.13494 0.0169,0.0466 0.0325,0.10795 0.0476,0.18494 h 0.0418 l -0.0222,-0.5461 h -0.0397 c -0.0228,0.0482 -0.0471,0.0722 -0.0722,0.0722 -0.0161,0 -0.0347,-0.005 -0.0564,-0.0146 l -0.0677,-0.0362 c -0.059,-0.0288 -0.12251,-0.0434 -0.19077,-0.0434 -0.1524,0 -0.2749,0.0595 -0.36698,0.17833 -0.0807,0.10451 -0.12038,0.22834 -0.12038,0.37307 0,0.1344 0.0397,0.2532 0.12038,0.35612 0.0553,0.0717 0.16801,0.16167 0.33602,0.26935 0.0955,0.0609 0.16378,0.10848 0.20453,0.14208 0.0407,0.0336 0.0744,0.0709 0.10133,0.1106 0.0482,0.0754 0.0717,0.16377 0.0717,0.26458 0,0.12356 -0.0331,0.21908 -0.10028,0.28628 -0.0609,0.0609 -0.13388,0.0916 -0.21749,0.0916 -0.13758,0 -0.25744,-0.0905 -0.3601,-0.27173 -0.0563,-0.0992 -0.10292,-0.23257 -0.13996,-0.39952 h -0.032 v 0.68104 h 0.032 c 0.0238,-0.0482 0.0595,-0.0722 0.10636,-0.0722 0.0185,0 0.0341,0.002 0.046,0.006 0.0119,0.004 0.0476,0.0196 0.10636,0.0471 0.0905,0.0418 0.18045,0.0624 0.26829,0.0624 0.16325,0 0.29713,-0.064 0.40164,-0.19288 0.091,-0.1106 0.13599,-0.25004 0.13599,-0.41857 0,-0.13944 -0.031,-0.26035 -0.0937,-0.36328 -0.0632,-0.10266 -0.15769,-0.18838 -0.28443,-0.25717 z"
       id="path198"
       style="stroke-width:0.26458332" />
    <path
       inkscape:connector-curvature="0"
       d="m 120.02139,294.64743 c -0.0347,0.0408 -0.0521,0.091 -0.0521,0.15029 0,0.0609 0.0169,0.11165 0.0511,0.15134 0.0347,0.0402 0.078,0.0601 0.13017,0.0601 0.0527,0 0.096,-0.0196 0.13018,-0.0601 0.0341,-0.0397 0.0511,-0.0905 0.0511,-0.15134 0,-0.0595 -0.0175,-0.10954 -0.0521,-0.15029 -0.0352,-0.0413 -0.078,-0.0614 -0.12912,-0.0614 -0.0511,0 -0.0942,0.0201 -0.12911,0.0614 z"
       id="path200"
       style="stroke-width:0.26458332" />
    <path
       inkscape:connector-curvature="0"
       d="m 120.3283,297.67982 c -0.0108,-0.05 -0.0161,-0.12964 -0.0161,-0.23812 l -0.002,-0.1823 v -1.38589 l -0.57785,0.0868 v 0.0505 c 0.0601,0.005 0.10636,0.0169 0.13837,0.0368 0.032,0.0201 0.0595,0.0526 0.0823,0.0971 0.0228,0.0413 0.0373,0.0955 0.0439,0.16166 0.007,0.0661 0.0103,0.18151 0.0103,0.34581 v 0.59161 c 0,0.13996 -0.003,0.24765 -0.009,0.322 -0.006,0.0738 -0.0161,0.12964 -0.031,0.16642 -0.0212,0.0558 -0.0497,0.095 -0.0841,0.11827 -0.0344,0.0233 -0.0921,0.0408 -0.17198,0.0537 v 0.0505 h 0.88582 v -0.0505 c -0.0998,-0.0222 -0.16907,-0.0553 -0.20611,-0.0982 -0.0312,-0.0336 -0.0519,-0.0754 -0.0622,-0.12621 z"
       id="path202"
       style="stroke-width:0.26458332" />
    <path
       inkscape:connector-curvature="0"
       d="m 123.25989,297.67929 c -0.0109,-0.05 -0.0161,-0.13017 -0.0161,-0.23865 v -1.01917 c 0,-0.17463 -0.0511,-0.30957 -0.15452,-0.40402 -0.10451,-0.096 -0.24183,-0.1442 -0.41301,-0.1442 -0.22834,0 -0.42572,0.10028 -0.59161,0.3003 v -0.0386 c 0,-0.0807 -0.009,-0.16801 -0.0283,-0.26141 l -0.54928,0.0868 v 0.0505 c 0.0606,0.005 0.10636,0.0169 0.13838,0.0368 0.032,0.0201 0.0595,0.0526 0.0828,0.0971 0.0228,0.0413 0.0373,0.0955 0.0439,0.16166 0.007,0.0661 0.01,0.18151 0.01,0.34581 v 0.59161 c 0,0.13996 -0.003,0.24765 -0.009,0.322 -0.006,0.0738 -0.0161,0.12964 -0.0304,0.16642 -0.0217,0.0558 -0.0497,0.095 -0.0841,0.11827 -0.0352,0.0233 -0.0926,0.0408 -0.17251,0.0537 v 0.0505 h 0.88636 v -0.0505 c -0.10028,-0.0222 -0.16907,-0.0553 -0.20664,-0.0987 -0.0304,-0.0336 -0.0511,-0.0754 -0.0619,-0.12621 -0.0103,-0.05 -0.0161,-0.13017 -0.0161,-0.23865 l -0.002,-0.17833 v -0.47069 c 0,-0.18759 0.007,-0.322 0.019,-0.40243 0.0124,-0.0812 0.0386,-0.15346 0.0791,-0.21749 0.0373,-0.0609 0.0884,-0.10901 0.15293,-0.1442 0.0645,-0.0352 0.1344,-0.0527 0.20928,-0.0527 0.0693,0 0.13282,0.0156 0.18971,0.0466 0.0574,0.0315 0.10133,0.0749 0.13229,0.13123 0.0278,0.0497 0.0471,0.11536 0.0569,0.19685 0.01,0.0815 0.0151,0.20981 0.0151,0.38444 v 0.50959 c 0,0.13943 -0.003,0.24659 -0.009,0.32094 -0.006,0.0743 -0.0167,0.13017 -0.031,0.16695 -0.0217,0.0564 -0.0497,0.0955 -0.0847,0.11932 -0.0347,0.0233 -0.0921,0.0408 -0.17198,0.0537 v 0.0505 h 0.88636 v -0.0505 c -0.10028,-0.0222 -0.16907,-0.0553 -0.20664,-0.0987 -0.0315,-0.0339 -0.0521,-0.0757 -0.063,-0.12648 z"
       id="path204"
       style="stroke-width:0.26458332" />
    <path
       inkscape:connector-curvature="0"
       d="m 128.25125,294.72549 c 0.0765,0.005 0.13785,0.0175 0.18547,0.0386 0.0476,0.0206 0.09,0.0542 0.127,0.1008 0.0418,0.0516 0.0704,0.11615 0.0857,0.19473 0.0151,0.0786 0.0228,0.20056 0.0228,0.36592 v 1.34515 c 0,0.24553 -0.003,0.4011 -0.008,0.46672 -0.008,0.10134 -0.0243,0.18441 -0.0492,0.25056 -0.0243,0.0656 -0.063,0.12674 -0.11536,0.18283 -0.0841,0.0894 -0.18971,0.15981 -0.31565,0.21034 -0.12594,0.0505 -0.25902,0.0754 -0.39793,0.0754 -0.14314,0 -0.26194,-0.0278 -0.35613,-0.0852 -0.0939,-0.0569 -0.17357,-0.14896 -0.2376,-0.27543 -0.0429,-0.0831 -0.0714,-0.17462 -0.0852,-0.27278 -0.0135,-0.0987 -0.0206,-0.25903 -0.0206,-0.47996 v -1.36207 c 0,-0.19527 0.007,-0.33391 0.0206,-0.41381 0.014,-0.0802 0.0434,-0.14738 0.0873,-0.20214 0.0363,-0.0466 0.0786,-0.0802 0.12674,-0.10081 0.0481,-0.0212 0.11006,-0.0341 0.186,-0.0386 v -0.0553 h -1.28111 v 0.0553 c 0.0775,0.005 0.13996,0.0175 0.18759,0.0386 0.0476,0.0206 0.0889,0.0542 0.12514,0.10081 0.0429,0.0516 0.0717,0.11615 0.0863,0.19473 0.0151,0.0786 0.0222,0.20055 0.0222,0.36592 v 1.4605 c 0,0.18494 0.004,0.31221 0.0119,0.38285 0.0228,0.19897 0.0926,0.35904 0.20876,0.48101 0.17885,0.1913 0.45772,0.28681 0.83608,0.28681 0.36221,0 0.64082,-0.10133 0.83608,-0.30321 0.0852,-0.0884 0.14261,-0.186 0.17092,-0.29237 0.0288,-0.10689 0.0434,-0.27225 0.0434,-0.49715 v -1.51818 c 0,-0.16377 0.008,-0.28522 0.0233,-0.36433 0.0151,-0.0796 0.0439,-0.14473 0.0847,-0.19632 0.0378,-0.0466 0.0802,-0.0802 0.12753,-0.10081 0.0476,-0.0212 0.10954,-0.0341 0.18548,-0.0386 v -0.0553 H 128.251 v 0.0548 z"
       id="path206"
       style="stroke-width:0.26458332" />
    <path
       inkscape:connector-curvature="0"
       d="m 131.85673,297.67929 c -0.0109,-0.05 -0.0161,-0.13017 -0.0161,-0.23865 v -1.01917 c 0,-0.17463 -0.0511,-0.30957 -0.15399,-0.40402 -0.10451,-0.096 -0.24236,-0.1442 -0.41354,-0.1442 -0.22834,0 -0.42572,0.10028 -0.59108,0.3003 v -0.0386 c 0,-0.0807 -0.01,-0.16801 -0.0283,-0.26141 l -0.54928,0.0868 v 0.0505 c 0.0601,0.005 0.10637,0.0169 0.13838,0.0368 0.032,0.0201 0.0595,0.0526 0.0823,0.0971 0.0228,0.0413 0.0373,0.0955 0.0439,0.16166 0.007,0.0661 0.0103,0.18151 0.0103,0.34581 v 0.59161 c 0,0.13996 -0.003,0.24765 -0.009,0.322 -0.006,0.0738 -0.0161,0.12964 -0.0309,0.16642 -0.0212,0.0558 -0.0497,0.095 -0.0841,0.11827 -0.0344,0.0233 -0.0921,0.0408 -0.17198,0.0537 v 0.0505 h 0.88583 v -0.0505 c -0.0998,-0.0222 -0.16907,-0.0553 -0.20611,-0.0987 -0.031,-0.0336 -0.0516,-0.0754 -0.0619,-0.12621 -0.0108,-0.05 -0.0161,-0.13017 -0.0161,-0.23865 l -0.002,-0.17833 v -0.47069 c 0,-0.18759 0.006,-0.322 0.0191,-0.40243 0.0124,-0.0812 0.0386,-0.15346 0.0786,-0.21749 0.0378,-0.0609 0.0884,-0.10901 0.15293,-0.1442 0.0651,-0.0352 0.13494,-0.0527 0.20928,-0.0527 0.0693,0 0.13282,0.0156 0.19024,0.0466 0.0574,0.0315 0.10133,0.0749 0.13176,0.13123 0.0283,0.0497 0.0471,0.11536 0.0569,0.19685 0.0103,0.0817 0.0156,0.20981 0.0156,0.38444 v 0.50959 c 0,0.13943 -0.003,0.24659 -0.009,0.32094 -0.006,0.0743 -0.0167,0.13017 -0.031,0.16695 -0.0212,0.0564 -0.0497,0.0955 -0.0841,0.11932 -0.0347,0.0233 -0.0921,0.0408 -0.17251,0.0537 v 0.0505 h 0.88636 v -0.0505 c -0.10028,-0.0222 -0.16907,-0.0553 -0.20611,-0.0987 -0.032,-0.0339 -0.0526,-0.0757 -0.0635,-0.12648 z"
       id="path208"
       style="stroke-width:0.26458332" />
    <path
       inkscape:connector-curvature="0"
       d="m 133.6178,297.67982 c -0.0109,-0.05 -0.0161,-0.12964 -0.0161,-0.23812 l -0.002,-0.1823 v -1.38589 l -0.57732,0.0868 v 0.0505 c 0.0601,0.005 0.10583,0.0169 0.13785,0.0368 0.032,0.0201 0.0595,0.0526 0.0823,0.0971 0.0228,0.0413 0.0378,0.0955 0.0445,0.16166 0.007,0.0661 0.01,0.18151 0.01,0.34581 v 0.59161 c 0,0.13996 -0.003,0.24765 -0.009,0.322 -0.006,0.0738 -0.0167,0.12964 -0.0315,0.16642 -0.0212,0.0558 -0.0492,0.095 -0.0841,0.11827 -0.0347,0.0233 -0.0921,0.0408 -0.17198,0.0537 v 0.0505 h 0.88635 v -0.0505 c -0.10028,-0.0222 -0.1696,-0.0553 -0.20664,-0.0982 -0.0307,-0.0336 -0.0513,-0.0754 -0.0622,-0.12621 z"
       id="path210"
       style="stroke-width:0.26458332" />
    <path
       inkscape:connector-curvature="0"
       d="m 133.57017,294.94932 c 0.0341,-0.0397 0.0516,-0.0905 0.0516,-0.15134 0,-0.0595 -0.0175,-0.10954 -0.0526,-0.15028 -0.0352,-0.0413 -0.078,-0.0614 -0.12859,-0.0614 -0.0516,0 -0.0944,0.0201 -0.12964,0.0614 -0.0347,0.0407 -0.0521,0.091 -0.0521,0.15028 0,0.0609 0.0169,0.11166 0.0516,0.15134 0.0341,0.0402 0.0775,0.0601 0.13017,0.0601 0.0524,0 0.0958,-0.0198 0.12965,-0.0601 z"
       id="path212"
       style="stroke-width:0.26458332" />
    <path
       inkscape:connector-curvature="0"
       d="m 135.92205,295.96268 c 0.0574,0.014 0.0966,0.0309 0.11827,0.05 0.0413,0.0368 0.0619,0.0955 0.0619,0.17569 0,0.0733 -0.0243,0.18653 -0.0722,0.3384 l -0.32649,1.02896 -0.32359,-0.98742 c -0.0357,-0.1106 -0.0606,-0.19473 -0.0733,-0.25268 -0.0135,-0.0574 -0.0201,-0.10795 -0.0201,-0.15134 0,-0.0704 0.0212,-0.12197 0.064,-0.15399 0.0212,-0.0175 0.0614,-0.0336 0.12039,-0.0476 v -0.0532 h -0.77814 v 0.0532 c 0.0444,0.008 0.0775,0.0175 0.10027,0.0294 0.0228,0.0124 0.0434,0.031 0.0624,0.0569 0.0331,0.0482 0.0884,0.18653 0.16642,0.4154 l 0.50271,1.4904 h 0.10848 l 0.46302,-1.41791 c 0.0749,-0.23045 0.14102,-0.38179 0.19843,-0.45429 0.0455,-0.0579 0.10584,-0.0976 0.18098,-0.11985 v -0.0532 h -0.55351 z"
       id="path214"
       style="stroke-width:0.26458332" />
    <path
       inkscape:connector-curvature="0"
       d="m 138.72955,297.683 c -0.0423,0.0511 -0.096,0.0915 -0.16061,0.12038 -0.0646,0.0283 -0.13282,0.0434 -0.20452,0.0434 -0.0971,0 -0.19024,-0.0259 -0.27914,-0.0775 -0.0884,-0.0511 -0.16271,-0.12197 -0.22277,-0.2114 -0.0585,-0.0884 -0.10478,-0.19897 -0.13891,-0.33232 -0.0336,-0.13335 -0.0505,-0.26934 -0.0505,-0.40878 0,-0.0357 0.003,-0.0926 0.008,-0.17092 h 1.17501 c 0,-0.20214 -0.0487,-0.37041 -0.14631,-0.50535 -0.063,-0.0868 -0.13944,-0.15293 -0.23046,-0.19844 -0.0915,-0.046 -0.1897,-0.0688 -0.29712,-0.0688 -0.20056,0 -0.37889,0.0743 -0.53525,0.22384 -0.21511,0.20558 -0.32253,0.48842 -0.32253,0.84957 0,0.26459 0.0569,0.48789 0.17013,0.66861 0.0817,0.13017 0.1815,0.22621 0.29924,0.28892 0.11721,0.0624 0.2585,0.0939 0.4228,0.0939 0.19024,0 0.34211,-0.0476 0.45641,-0.14314 0.1143,-0.0955 0.18865,-0.23707 0.22384,-0.42466 l -0.0418,-0.0169 c -0.0357,0.12329 -0.0765,0.21325 -0.12514,0.26961 z m -0.88398,-1.57877 c 0.0857,-0.1188 0.186,-0.1778 0.3003,-0.1778 0.0683,0 0.13177,0.0227 0.19183,0.0683 0.0601,0.046 0.10795,0.10795 0.14367,0.18653 0.0397,0.0868 0.0645,0.21035 0.0738,0.37042 h -0.86201 c 0.0159,-0.17912 0.0664,-0.32861 0.1524,-0.44741 z"
       id="path216"
       style="stroke-width:0.26458332" />
    <path
       inkscape:connector-curvature="0"
       d="m 141.00179,295.87325 c -0.14156,0 -0.26829,0.0476 -0.37942,0.14208 -0.0601,0.0511 -0.1143,0.127 -0.16219,0.22834 0,-0.10293 -0.0114,-0.22622 -0.0347,-0.37042 l -0.51673,0.0868 v 0.0505 c 0.0601,0.005 0.10584,0.0169 0.13838,0.0368 0.032,0.0201 0.0595,0.0527 0.0818,0.0971 0.0233,0.0413 0.0378,0.0955 0.0444,0.16166 0.007,0.0661 0.01,0.1815 0.01,0.34581 v 0.59161 c 0,0.13996 -0.003,0.24765 -0.009,0.32199 -0.006,0.0738 -0.0167,0.12965 -0.031,0.16643 -0.0212,0.0558 -0.0497,0.095 -0.0841,0.11827 -0.0344,0.0233 -0.0926,0.0407 -0.17251,0.0537 v 0.0505 h 0.88636 v -0.0505 c -0.10028,-0.0222 -0.16907,-0.0553 -0.20611,-0.0987 -0.031,-0.0336 -0.0516,-0.0754 -0.0625,-0.12621 -0.0108,-0.05 -0.0161,-0.13018 -0.0161,-0.23865 l -0.002,-0.18283 v -0.449 c 0,-0.25162 0.0249,-0.44794 0.0759,-0.58923 0.0505,-0.14102 0.12145,-0.2114 0.21246,-0.2114 0.0672,0 0.12515,0.031 0.17463,0.0937 l 0.0619,0.0818 c 0.0336,0.045 0.0728,0.0677 0.11827,0.0677 0.0386,0 0.0704,-0.0145 0.095,-0.0434 0.0246,-0.0288 0.0373,-0.0656 0.0373,-0.11059 0,-0.0609 -0.0206,-0.11219 -0.0619,-0.15399 -0.0455,-0.0466 -0.11166,-0.0698 -0.1987,-0.0698 z"
       id="path218"
       style="stroke-width:0.26458332" />
    <path
       inkscape:connector-curvature="0"
       d="m 142.95177,296.76622 -0.21194,-0.11589 c -0.0987,-0.0526 -0.17145,-0.11113 -0.21907,-0.1741 -0.0476,-0.0635 -0.0709,-0.1344 -0.0709,-0.21299 0,-0.0944 0.0265,-0.17462 0.0786,-0.23971 0.0526,-0.0651 0.11668,-0.0971 0.1913,-0.0971 0.0532,0 0.10742,0.0169 0.16166,0.0516 0.0548,0.0347 0.10292,0.0823 0.14419,0.14314 0.0304,0.0434 0.0542,0.0878 0.0709,0.13494 0.0167,0.0466 0.0326,0.10795 0.0471,0.18494 h 0.0423 l -0.0222,-0.5461 h -0.0402 c -0.0222,0.0482 -0.0466,0.0722 -0.0717,0.0722 -0.0161,0 -0.0352,-0.005 -0.0564,-0.0146 l -0.0683,-0.0362 c -0.0585,-0.0288 -0.1225,-0.0434 -0.19024,-0.0434 -0.1524,0 -0.2749,0.0595 -0.3675,0.17833 -0.0802,0.10451 -0.11986,0.22834 -0.11986,0.37307 0,0.1344 0.0397,0.2532 0.11986,0.35612 0.0558,0.0717 0.16801,0.16167 0.33628,0.26935 0.0955,0.0609 0.16378,0.10848 0.20453,0.14208 0.0407,0.0336 0.0743,0.0709 0.10133,0.1106 0.0476,0.0754 0.0717,0.16377 0.0717,0.26458 0,0.12356 -0.0336,0.21908 -0.10027,0.28628 -0.0609,0.0609 -0.13388,0.0916 -0.21802,0.0916 -0.13705,0 -0.25744,-0.0905 -0.35957,-0.27173 -0.0563,-0.0992 -0.10292,-0.23257 -0.13996,-0.39952 h -0.032 v 0.68104 h 0.032 c 0.0238,-0.0482 0.0595,-0.0722 0.10583,-0.0722 0.0191,0 0.0341,0.002 0.0466,0.006 0.0119,0.004 0.0471,0.0196 0.10583,0.0471 0.091,0.0418 0.18098,0.0624 0.26882,0.0624 0.16324,0 0.29712,-0.064 0.40163,-0.19288 0.0905,-0.1106 0.136,-0.25004 0.136,-0.41857 0,-0.13944 -0.0315,-0.26035 -0.0939,-0.36328 -0.0624,-0.10292 -0.15742,-0.18838 -0.28442,-0.25717 z"
       id="path220"
       style="stroke-width:0.26458332" />
    <path
       inkscape:connector-curvature="0"
       d="m 144.94434,297.67982 c -0.0103,-0.05 -0.0161,-0.12964 -0.0161,-0.23812 l -0.002,-0.1823 v -1.38589 l -0.57732,0.0868 v 0.0505 c 0.0601,0.005 0.10583,0.0169 0.13837,0.0368 0.032,0.0201 0.0595,0.0526 0.0823,0.0971 0.0228,0.0413 0.0373,0.0955 0.0439,0.16166 0.007,0.0661 0.01,0.18151 0.01,0.34581 v 0.59161 c 0,0.13996 -0.003,0.24765 -0.009,0.322 -0.006,0.0738 -0.0161,0.12964 -0.031,0.16642 -0.0217,0.0558 -0.0497,0.095 -0.0841,0.11827 -0.0352,0.0233 -0.0926,0.0408 -0.1725,0.0537 v 0.0505 h 0.88635 v -0.0505 c -0.10028,-0.0222 -0.16907,-0.0553 -0.20664,-0.0982 -0.0307,-0.0336 -0.0513,-0.0754 -0.0622,-0.12621 z"
       id="path222"
       style="stroke-width:0.26458332" />
    <path
       inkscape:connector-curvature="0"
       d="m 144.76707,295.00938 c 0.0521,0 0.0955,-0.0196 0.13018,-0.0601 0.0341,-0.0397 0.0511,-0.0905 0.0511,-0.15134 0,-0.0595 -0.0175,-0.10954 -0.0521,-0.15028 -0.0352,-0.0413 -0.078,-0.0614 -0.12912,-0.0614 -0.0511,0 -0.0939,0.0201 -0.12911,0.0614 -0.0347,0.0407 -0.0521,0.091 -0.0521,0.15028 0,0.0609 0.0169,0.11166 0.0511,0.15134 0.0341,0.0402 0.0775,0.0601 0.13017,0.0601 z"
       id="path224"
       style="stroke-width:0.26458332" />
    <path
       inkscape:connector-curvature="0"
       d="m 147.07688,297.84519 c -0.0402,0.0294 -0.0905,0.0445 -0.15028,0.0445 -0.0476,0 -0.0926,-0.0109 -0.13388,-0.0336 -0.0407,-0.0222 -0.0744,-0.0537 -0.0998,-0.0939 -0.0482,-0.0717 -0.0717,-0.19235 -0.0717,-0.36063 v -1.40044 h 0.50906 v -0.0915 h -0.50906 v -0.62574 h -0.0749 l -0.0201,0.0796 c -0.0243,0.0931 -0.05,0.16907 -0.077,0.22727 -0.027,0.0582 -0.0619,0.11721 -0.10636,0.17675 -0.0738,0.096 -0.15399,0.16113 -0.2413,0.19526 v 0.0384 h 0.21511 v 1.45839 c 0,0.13943 0.006,0.23627 0.018,0.28998 0.0119,0.0537 0.0373,0.0998 0.0765,0.13838 0.0717,0.0738 0.18706,0.11059 0.34476,0.11059 0.11879,0 0.21801,-0.0233 0.29765,-0.0698 0.0796,-0.0466 0.14102,-0.11827 0.18547,-0.21458 l -0.0299,-0.031 c -0.0484,0.0786 -0.0923,0.13229 -0.1323,0.16219 z"
       id="path226"
       style="stroke-width:0.26458332" />
    <path
       inkscape:connector-curvature="0"
       d="m 149.08983,295.9095 v 0.0532 c 0.064,0.009 0.11325,0.0352 0.14632,0.078 0.0331,0.0423 0.05,0.0992 0.05,0.17145 0,0.09 -0.0362,0.24236 -0.10848,0.45879 l -0.29237,0.86704 -0.33549,-1.03056 c -0.0542,-0.16483 -0.0818,-0.27966 -0.0818,-0.34369 0,-0.0738 0.0259,-0.12806 0.0781,-0.16325 0.0243,-0.0161 0.0635,-0.0288 0.11826,-0.0384 v -0.0532 h -0.77813 v 0.0532 c 0.0471,0.006 0.0873,0.0243 0.12038,0.0548 0.0206,0.0196 0.0402,0.0505 0.0606,0.0939 0.0196,0.0434 0.0481,0.11616 0.0841,0.21855 l 0.0601,0.17304 0.41539,1.19935 c 0.0505,0.14738 0.0759,0.25056 0.0759,0.3101 0,0.0418 -0.0135,0.10133 -0.0402,0.17885 l -0.0614,0.18336 c -0.0521,0.14975 -0.11933,0.2249 -0.20214,0.2249 -0.0175,0 -0.0326,-0.003 -0.045,-0.007 -0.0124,-0.004 -0.0408,-0.018 -0.0852,-0.0386 -0.0455,-0.0222 -0.0852,-0.0336 -0.11985,-0.0336 -0.0413,0 -0.0744,0.0124 -0.0998,0.0378 -0.0254,0.0249 -0.0384,0.0579 -0.0384,0.0997 0,0.0527 0.0217,0.0955 0.0651,0.12806 0.0434,0.0331 0.10081,0.0497 0.17145,0.0497 0.11113,0 0.20267,-0.05 0.2749,-0.15134 0.0423,-0.0608 0.0987,-0.19288 0.16854,-0.39476 l 0.58129,-1.69386 c 0.0841,-0.24553 0.14579,-0.40349 0.18442,-0.47387 0.0254,-0.045 0.0516,-0.0781 0.0791,-0.0987 0.0275,-0.0206 0.0699,-0.0407 0.12753,-0.0601 v -0.0532 h -0.57336 z"
       id="path228"
       style="stroke-width:0.26458332" />
  </g>
</svg>
